<svg xmlns="http://www.w3.org/2000/svg" xmlns:xlink="http://www.w3.org/1999/xlink" width="55" zoomAndPan="magnify" viewBox="0 0 41.25 41.250001" height="55" preserveAspectRatio="xMidYMid meet" version="1.0"><defs><clipPath id="03922e0fae"><path d="M 2 8 L 39 8 L 39 40.511719 L 2 40.511719 Z M 2 8 " clip-rule="nonzero"/></clipPath><clipPath id="5ec50ba2cb"><path d="M 11 30 L 19 30 L 19 40.511719 L 11 40.511719 Z M 11 30 " clip-rule="nonzero"/></clipPath></defs><g clip-path="url(#03922e0fae)"><path fill="#ffde59" d="M 36.878906 14.210938 L 24.550781 14.210938 L 24.550781 8.75 L 15.964844 8.75 L 15.964844 14.210938 L 3.636719 14.210938 C 2.992188 14.210938 2.472656 14.730469 2.472656 15.375 C 2.472656 16.015625 2.992188 16.539062 3.636719 16.539062 L 15.964844 16.539062 L 15.964844 21.996094 L 18.835938 21.996094 L 18.835938 23.765625 C 18.835938 24.179688 19.019531 24.550781 19.304688 24.8125 C 19.117188 24.84375 18.925781 24.867188 18.734375 24.886719 C 17.90625 24.984375 16.96875 25.09375 16.769531 25.972656 L 16.761719 26.046875 C 16.757812 26.28125 16.84375 26.496094 17.015625 26.65625 C 17.542969 27.164062 18.730469 27.121094 20.632812 27.007812 C 22.125 26.921875 23.980469 26.8125 24.53125 27.3125 C 24.625 27.398438 24.667969 27.496094 24.671875 27.628906 C 24.695312 28.347656 23.550781 28.492188 21.925781 28.621094 C 20.613281 28.722656 19.375 28.820312 18.808594 29.488281 C 18.585938 29.746094 18.488281 30.066406 18.519531 30.441406 L 18.949219 30.40625 C 18.800781 30.421875 18.652344 30.441406 18.519531 30.464844 L 18.519531 31.667969 L 21.597656 31.683594 C 23.886719 31.683594 25.164062 32.949219 25.148438 35.164062 C 25.148438 37.707031 23.738281 39.015625 21.359375 39 C 20.988281 39 20.601562 39 20.347656 38.953125 L 20.347656 33.390625 L 18.519531 33.390625 L 18.519531 40.324219 C 19.113281 40.398438 19.917969 40.457031 20.988281 40.457031 C 22.933594 40.457031 24.527344 39.996094 25.523438 39.089844 C 26.472656 38.226562 27.082031 36.890625 27.082031 35.105469 C 27.082031 33.394531 26.488281 32.207031 25.523438 31.417969 C 24.601562 30.644531 23.308594 30.257812 21.433594 30.257812 C 20.65625 30.257812 19.910156 30.296875 19.253906 30.367188 C 19.242188 30.199219 19.277344 30.074219 19.367188 29.964844 C 19.738281 29.53125 20.929688 29.4375 21.984375 29.355469 C 23.613281 29.226562 25.457031 29.085938 25.410156 27.605469 C 25.398438 27.277344 25.265625 26.988281 25.027344 26.769531 C 24.246094 26.058594 22.390625 26.167969 20.589844 26.277344 C 19.378906 26.347656 17.878906 26.4375 17.507812 26.074219 C 17.628906 25.78125 18.09375 25.707031 18.816406 25.625 C 19.394531 25.554688 20.023438 25.480469 20.488281 25.164062 C 21.160156 25.054688 21.679688 24.476562 21.679688 23.769531 L 21.679688 22 L 24.550781 22 L 24.550781 16.542969 L 36.878906 16.542969 C 37.519531 16.542969 38.042969 16.019531 38.042969 15.378906 C 38.042969 14.734375 37.519531 14.210938 36.878906 14.210938 Z M 36.878906 14.210938 " fill-opacity="1" fill-rule="nonzero"/></g><path fill="#ffde59" d="M 15.136719 11.925781 L 15.382812 11.925781 L 15.382812 9.441406 L 15.136719 9.441406 C 14.449219 9.441406 13.894531 9.996094 13.894531 10.683594 C 13.894531 11.367188 14.449219 11.925781 15.136719 11.925781 Z M 15.136719 11.925781 " fill-opacity="1" fill-rule="nonzero"/><path fill="#ffde59" d="M 24.933594 9.441406 L 24.933594 11.925781 L 25.175781 11.925781 C 25.863281 11.925781 26.417969 11.367188 26.417969 10.679688 C 26.417969 9.996094 25.863281 9.4375 25.175781 9.4375 Z M 24.933594 9.441406 " fill-opacity="1" fill-rule="nonzero"/><path fill="#ffde59" d="M 20.882812 8.472656 L 21.085938 8.46875 C 21.070312 7.242188 21.351562 6.359375 21.945312 5.769531 C 23.078125 4.652344 25.273438 4.703125 27.398438 4.757812 C 29.609375 4.8125 31.898438 4.867188 33.128906 3.574219 C 33.820312 2.851562 34.105469 1.800781 34 0.367188 L 33.269531 0.421875 C 33.355469 1.636719 33.136719 2.5 32.597656 3.066406 C 31.941406 3.757812 30.839844 3.972656 29.558594 4.027344 C 29.847656 3.878906 30.113281 3.691406 30.339844 3.449219 C 31.023438 2.707031 31.300781 1.578125 31.183594 0 L 30.449219 0.0546875 C 30.550781 1.417969 30.335938 2.367188 29.796875 2.949219 C 28.984375 3.828125 27.480469 3.835938 25.882812 3.84375 C 24.148438 3.855469 22.355469 3.863281 21.21875 5.019531 C 20.476562 5.777344 20.128906 6.914062 20.144531 8.496094 L 20.882812 8.484375 C 20.882812 8.480469 20.882812 8.476562 20.882812 8.472656 Z M 20.882812 8.472656 " fill-opacity="1" fill-rule="nonzero"/><g clip-path="url(#5ec50ba2cb)"><path fill="#ffde59" d="M 16.269531 35.175781 L 16.269531 35.148438 C 17.457031 34.730469 18.054688 33.898438 18.054688 32.886719 C 18.054688 31.621094 17.027344 30.523438 15.035156 30.523438 C 13.875 30.523438 12.804688 30.878906 12.253906 31.265625 L 12.671875 32.589844 C 13.070312 32.320312 13.859375 31.980469 14.648438 31.980469 C 15.703125 31.980469 16.195312 32.53125 16.195312 33.183594 C 16.195312 34.148438 15.125 34.539062 14.277344 34.539062 L 13.457031 34.539062 L 13.457031 35.875 L 14.304688 35.875 C 15.421875 35.875 16.492188 36.367188 16.492188 37.511719 C 16.507812 38.269531 15.941406 39.058594 14.542969 39.058594 C 13.621094 39.058594 12.714844 38.6875 12.34375 38.460938 L 11.925781 39.847656 C 12.449219 40.1875 13.457031 40.515625 14.632812 40.515625 C 17.027344 40.515625 18.394531 39.222656 18.394531 37.585938 C 18.394531 36.277344 17.445312 35.382812 16.269531 35.175781 Z M 16.269531 35.175781 " fill-opacity="1" fill-rule="nonzero"/></g></svg>