<svg xmlns="http://www.w3.org/2000/svg" xmlns:xlink="http://www.w3.org/1999/xlink" width="64" zoomAndPan="magnify" viewBox="0 0 48 60" height="80" preserveAspectRatio="xMidYMid meet" version="1.0"><defs><g/></defs><path fill="#004aad" d="M 19.5 10.5 L 19.5 9 C 19.5 8.171875 18.828125 7.5 18 7.5 L 17.25 7.5 L 17.25 6.679688 C 17.25 5.566406 17.804688 4.53125 18.730469 3.914062 C 19.210938 3.59375 19.5 3.054688 19.5 2.476562 C 19.5 1.523438 18.726562 0.75 17.773438 0.75 L 16.644531 0.75 C 14.425781 0.75 12.460938 2.082031 11.636719 4.140625 C 11.378906 4.78125 11.25 5.453125 11.25 6.144531 L 11.25 7.5 L 10.5 7.5 C 9.671875 7.5 9 8.171875 9 9 L 9 18 C 9 18.828125 9.671875 19.5 10.5 19.5 L 11.25 19.5 L 11.25 20.378906 C 10.378906 20.6875 9.75 21.523438 9.75 22.5 L 9.75 23.25 C 9.75 24.492188 10.757812 25.5 12 25.5 L 16.5 25.5 C 17.742188 25.5 18.75 24.492188 18.75 23.25 L 18.75 22.5 C 18.75 21.523438 18.121094 20.6875 17.25 20.378906 L 17.25 19.5 L 18 19.5 C 18.828125 19.5 19.5 18.828125 19.5 18 L 19.5 16.5 L 47.25 16.5 L 47.25 10.5 Z M 12.75 6.144531 C 12.75 5.644531 12.84375 5.160156 13.027344 4.699219 C 13.625 3.210938 15.042969 2.25 16.644531 2.25 L 17.773438 2.25 C 17.898438 2.25 18 2.351562 18 2.476562 C 18 2.554688 17.960938 2.625 17.898438 2.667969 C 16.554688 3.5625 15.75 5.0625 15.75 6.679688 L 15.75 7.5 L 12.75 7.5 Z M 16.5 21.75 C 16.914062 21.75 17.25 22.085938 17.25 22.5 L 17.25 23.25 C 17.25 23.664062 16.914062 24 16.5 24 L 12 24 C 11.585938 24 11.25 23.664062 11.25 23.25 L 11.25 22.5 C 11.25 22.085938 11.585938 21.75 12 21.75 L 12.75 21.75 L 12.75 19.5 L 15.75 19.5 L 15.75 21.75 Z M 18 18 L 10.5 18 L 10.5 9 L 18 9 Z M 45.75 15 L 19.5 15 L 19.5 12 L 45.75 12 Z M 45.75 15 " fill-opacity="1" fill-rule="nonzero"/><path fill="#004aad" d="M 16.5 28.5 L 19.5 28.5 L 19.5 27 L 9 27 L 9 28.5 L 12 28.5 L 12 36.75 L 0.75 36.75 L 0.75 47.25 L 47.25 47.25 L 47.25 36.75 L 16.5 36.75 Z M 13.5 28.5 L 15 28.5 L 15 36.75 L 13.5 36.75 Z M 2.25 38.25 L 3.75 38.25 L 3.75 45.75 L 2.25 45.75 Z M 45.75 39.75 L 42.75 39.75 L 42.75 41.25 L 45.75 41.25 L 45.75 42.75 L 41.25 42.75 L 41.25 44.25 L 45.75 44.25 L 45.75 45.75 L 5.25 45.75 L 5.25 41.25 L 13.5 41.25 C 13.914062 41.25 14.25 41.585938 14.25 42 C 14.25 42.414062 13.914062 42.75 13.5 42.75 L 11.25 42.75 L 11.25 44.25 L 13.5 44.25 C 14.742188 44.25 15.75 43.242188 15.75 42 C 15.75 40.757812 14.742188 39.75 13.5 39.75 L 5.25 39.75 L 5.25 38.25 L 45.75 38.25 Z M 45.75 39.75 " fill-opacity="1" fill-rule="nonzero"/><path fill="#004aad" d="M 17.25 41.25 L 26.25 41.25 L 26.25 42.75 L 17.25 42.75 Z M 17.25 41.25 " fill-opacity="1" fill-rule="nonzero"/><path fill="#004aad" d="M 39 42 C 39 40.757812 37.992188 39.75 36.75 39.75 L 34.5 39.75 L 34.5 41.25 L 36.75 41.25 C 37.164062 41.25 37.5 41.585938 37.5 42 C 37.5 42.414062 37.164062 42.75 36.75 42.75 L 28.5 42.75 L 28.5 44.25 L 36.75 44.25 C 37.992188 44.25 39 43.242188 39 42 Z M 39 42 " fill-opacity="1" fill-rule="nonzero"/><path fill="#004aad" d="M 3.75 21 L 5.25 21 L 5.25 22.5 L 3.75 22.5 Z M 3.75 21 " fill-opacity="1" fill-rule="nonzero"/><path fill="#004aad" d="M 3.75 24 L 5.25 24 L 5.25 25.5 L 3.75 25.5 Z M 3.75 24 " fill-opacity="1" fill-rule="nonzero"/><path fill="#004aad" d="M 5.25 22.5 L 6.75 22.5 L 6.75 24 L 5.25 24 Z M 5.25 22.5 " fill-opacity="1" fill-rule="nonzero"/><path fill="#004aad" d="M 2.25 22.5 L 3.75 22.5 L 3.75 24 L 2.25 24 Z M 2.25 22.5 " fill-opacity="1" fill-rule="nonzero"/><path fill="#004aad" d="M 23.25 25.5 L 24.75 25.5 L 24.75 27 L 23.25 27 Z M 23.25 25.5 " fill-opacity="1" fill-rule="nonzero"/><path fill="#004aad" d="M 23.25 28.5 L 24.75 28.5 L 24.75 30 L 23.25 30 Z M 23.25 28.5 " fill-opacity="1" fill-rule="nonzero"/><path fill="#004aad" d="M 24.75 27 L 26.25 27 L 26.25 28.5 L 24.75 28.5 Z M 24.75 27 " fill-opacity="1" fill-rule="nonzero"/><path fill="#004aad" d="M 21.75 27 L 23.25 27 L 23.25 28.5 L 21.75 28.5 Z M 21.75 27 " fill-opacity="1" fill-rule="nonzero"/><g fill="#004aad" fill-opacity="1"><g transform="translate(0, 59.25)"><g><path d="M 1.453125 -0.390625 C 1.773438 -0.390625 2.003906 -0.550781 2.140625 -0.875 L 2.609375 -0.703125 C 2.503906 -0.453125 2.351562 -0.265625 2.15625 -0.140625 C 1.957031 -0.0234375 1.722656 0.03125 1.453125 0.03125 C 1.035156 0.03125 0.710938 -0.0820312 0.484375 -0.3125 C 0.265625 -0.550781 0.15625 -0.878906 0.15625 -1.296875 C 0.15625 -1.722656 0.265625 -2.050781 0.484375 -2.28125 C 0.703125 -2.507812 1.019531 -2.625 1.4375 -2.625 C 1.738281 -2.625 1.984375 -2.5625 2.171875 -2.4375 C 2.359375 -2.3125 2.492188 -2.132812 2.578125 -1.90625 L 2.09375 -1.765625 C 2.050781 -1.898438 1.972656 -2.003906 1.859375 -2.078125 C 1.742188 -2.148438 1.601562 -2.1875 1.4375 -2.1875 C 1.195312 -2.1875 1.015625 -2.109375 0.890625 -1.953125 C 0.765625 -1.804688 0.703125 -1.585938 0.703125 -1.296875 C 0.703125 -1.003906 0.765625 -0.78125 0.890625 -0.625 C 1.023438 -0.46875 1.210938 -0.390625 1.453125 -0.390625 Z M 1.453125 -0.390625 "/></g></g><g transform="translate(2.70813, 59.25)"><g><path d="M 0.265625 0 L 0.265625 -1.515625 C 0.265625 -1.617188 0.257812 -1.707031 0.25 -1.78125 C 0.25 -1.851562 0.25 -1.921875 0.25 -1.984375 L 0.734375 -1.984375 C 0.742188 -1.960938 0.75 -1.894531 0.75 -1.78125 C 0.757812 -1.664062 0.765625 -1.59375 0.765625 -1.5625 C 0.816406 -1.695312 0.863281 -1.789062 0.90625 -1.84375 C 0.945312 -1.90625 0.992188 -1.945312 1.046875 -1.96875 C 1.097656 -2 1.164062 -2.015625 1.25 -2.015625 C 1.3125 -2.015625 1.363281 -2.007812 1.40625 -2 L 1.40625 -1.5625 C 1.320312 -1.582031 1.25 -1.59375 1.1875 -1.59375 C 1.050781 -1.59375 0.945312 -1.539062 0.875 -1.4375 C 0.8125 -1.332031 0.78125 -1.175781 0.78125 -0.96875 L 0.78125 0 Z M 0.265625 0 "/></g></g><g transform="translate(4.16748, 59.25)"><g><path d="M 1.078125 0.03125 C 0.773438 0.03125 0.539062 -0.0546875 0.375 -0.234375 C 0.21875 -0.410156 0.140625 -0.664062 0.140625 -1 C 0.140625 -1.320312 0.222656 -1.570312 0.390625 -1.75 C 0.554688 -1.925781 0.785156 -2.015625 1.078125 -2.015625 C 1.359375 -2.015625 1.570312 -1.921875 1.71875 -1.734375 C 1.875 -1.546875 1.953125 -1.269531 1.953125 -0.90625 L 1.953125 -0.890625 L 0.6875 -0.890625 C 0.6875 -0.703125 0.722656 -0.554688 0.796875 -0.453125 C 0.867188 -0.359375 0.96875 -0.3125 1.09375 -0.3125 C 1.28125 -0.3125 1.394531 -0.390625 1.4375 -0.546875 L 1.921875 -0.5 C 1.785156 -0.144531 1.503906 0.03125 1.078125 0.03125 Z M 1.078125 -1.6875 C 0.953125 -1.6875 0.859375 -1.644531 0.796875 -1.5625 C 0.734375 -1.476562 0.695312 -1.363281 0.6875 -1.21875 L 1.453125 -1.21875 C 1.441406 -1.375 1.40625 -1.488281 1.34375 -1.5625 C 1.28125 -1.644531 1.191406 -1.6875 1.078125 -1.6875 Z M 1.078125 -1.6875 "/></g></g><g transform="translate(6.253052, 59.25)"><g><path d="M 0.71875 0.03125 C 0.53125 0.03125 0.378906 -0.0195312 0.265625 -0.125 C 0.160156 -0.226562 0.109375 -0.375 0.109375 -0.5625 C 0.109375 -0.769531 0.175781 -0.925781 0.3125 -1.03125 C 0.445312 -1.132812 0.640625 -1.1875 0.890625 -1.1875 L 1.3125 -1.203125 L 1.3125 -1.296875 C 1.3125 -1.429688 1.289062 -1.53125 1.25 -1.59375 C 1.207031 -1.65625 1.132812 -1.6875 1.03125 -1.6875 C 0.9375 -1.6875 0.863281 -1.660156 0.8125 -1.609375 C 0.769531 -1.566406 0.742188 -1.5 0.734375 -1.40625 L 0.203125 -1.4375 C 0.234375 -1.625 0.316406 -1.765625 0.453125 -1.859375 C 0.597656 -1.960938 0.796875 -2.015625 1.046875 -2.015625 C 1.296875 -2.015625 1.488281 -1.953125 1.625 -1.828125 C 1.757812 -1.703125 1.828125 -1.53125 1.828125 -1.3125 L 1.828125 -0.59375 C 1.828125 -0.476562 1.835938 -0.398438 1.859375 -0.359375 C 1.890625 -0.316406 1.9375 -0.296875 2 -0.296875 C 2.03125 -0.296875 2.066406 -0.296875 2.109375 -0.296875 L 2.109375 -0.03125 C 2.078125 -0.0195312 2.046875 -0.0078125 2.015625 0 C 1.992188 0 1.972656 0 1.953125 0 C 1.929688 0.0078125 1.90625 0.015625 1.875 0.015625 C 1.84375 0.015625 1.8125 0.015625 1.78125 0.015625 C 1.644531 0.015625 1.546875 -0.015625 1.484375 -0.078125 C 1.429688 -0.140625 1.394531 -0.234375 1.375 -0.359375 C 1.226562 -0.0976562 1.007812 0.03125 0.71875 0.03125 Z M 1.3125 -0.921875 L 1.0625 -0.90625 C 0.9375 -0.90625 0.847656 -0.894531 0.796875 -0.875 C 0.742188 -0.851562 0.703125 -0.816406 0.671875 -0.765625 C 0.648438 -0.722656 0.640625 -0.664062 0.640625 -0.59375 C 0.640625 -0.5 0.660156 -0.429688 0.703125 -0.390625 C 0.753906 -0.347656 0.816406 -0.328125 0.890625 -0.328125 C 0.960938 -0.328125 1.03125 -0.347656 1.09375 -0.390625 C 1.164062 -0.429688 1.21875 -0.488281 1.25 -0.5625 C 1.289062 -0.644531 1.3125 -0.726562 1.3125 -0.8125 Z M 1.3125 -0.921875 "/></g></g><g transform="translate(8.338623, 59.25)"><g><path d="M 0.765625 0.03125 C 0.617188 0.03125 0.503906 -0.0078125 0.421875 -0.09375 C 0.335938 -0.175781 0.296875 -0.300781 0.296875 -0.46875 L 0.296875 -1.640625 L 0.046875 -1.640625 L 0.046875 -1.984375 L 0.328125 -1.984375 L 0.484375 -2.453125 L 0.8125 -2.453125 L 0.8125 -1.984375 L 1.1875 -1.984375 L 1.1875 -1.640625 L 0.8125 -1.640625 L 0.8125 -0.609375 C 0.8125 -0.503906 0.828125 -0.429688 0.859375 -0.390625 C 0.898438 -0.347656 0.957031 -0.328125 1.03125 -0.328125 C 1.070312 -0.328125 1.128906 -0.332031 1.203125 -0.34375 L 1.203125 -0.03125 C 1.078125 0.0078125 0.929688 0.03125 0.765625 0.03125 Z M 0.765625 0.03125 "/></g></g><g transform="translate(9.587402, 59.25)"><g><path d="M 1.078125 0.03125 C 0.773438 0.03125 0.539062 -0.0546875 0.375 -0.234375 C 0.21875 -0.410156 0.140625 -0.664062 0.140625 -1 C 0.140625 -1.320312 0.222656 -1.570312 0.390625 -1.75 C 0.554688 -1.925781 0.785156 -2.015625 1.078125 -2.015625 C 1.359375 -2.015625 1.570312 -1.921875 1.71875 -1.734375 C 1.875 -1.546875 1.953125 -1.269531 1.953125 -0.90625 L 1.953125 -0.890625 L 0.6875 -0.890625 C 0.6875 -0.703125 0.722656 -0.554688 0.796875 -0.453125 C 0.867188 -0.359375 0.96875 -0.3125 1.09375 -0.3125 C 1.28125 -0.3125 1.394531 -0.390625 1.4375 -0.546875 L 1.921875 -0.5 C 1.785156 -0.144531 1.503906 0.03125 1.078125 0.03125 Z M 1.078125 -1.6875 C 0.953125 -1.6875 0.859375 -1.644531 0.796875 -1.5625 C 0.734375 -1.476562 0.695312 -1.363281 0.6875 -1.21875 L 1.453125 -1.21875 C 1.441406 -1.375 1.40625 -1.488281 1.34375 -1.5625 C 1.28125 -1.644531 1.191406 -1.6875 1.078125 -1.6875 Z M 1.078125 -1.6875 "/></g></g><g transform="translate(11.672973, 59.25)"><g><path d="M 1.546875 0 C 1.535156 -0.0195312 1.523438 -0.0664062 1.515625 -0.140625 C 1.515625 -0.210938 1.515625 -0.273438 1.515625 -0.328125 C 1.398438 -0.0859375 1.1875 0.03125 0.875 0.03125 C 0.644531 0.03125 0.46875 -0.0546875 0.34375 -0.234375 C 0.21875 -0.410156 0.15625 -0.660156 0.15625 -0.984375 C 0.15625 -1.316406 0.21875 -1.570312 0.34375 -1.75 C 0.476562 -1.925781 0.671875 -2.015625 0.921875 -2.015625 C 1.054688 -2.015625 1.175781 -1.984375 1.28125 -1.921875 C 1.382812 -1.867188 1.460938 -1.785156 1.515625 -1.671875 L 1.515625 -2.71875 L 2.03125 -2.71875 L 2.03125 -0.4375 C 2.03125 -0.3125 2.035156 -0.164062 2.046875 0 Z M 1.515625 -1 C 1.515625 -1.21875 1.476562 -1.382812 1.40625 -1.5 C 1.34375 -1.613281 1.238281 -1.671875 1.09375 -1.671875 C 0.957031 -1.671875 0.851562 -1.613281 0.78125 -1.5 C 0.71875 -1.382812 0.6875 -1.210938 0.6875 -0.984375 C 0.6875 -0.535156 0.820312 -0.3125 1.09375 -0.3125 C 1.226562 -0.3125 1.332031 -0.367188 1.40625 -0.484375 C 1.476562 -0.609375 1.515625 -0.78125 1.515625 -1 Z M 1.515625 -1 "/></g></g><g transform="translate(13.963622, 59.25)"><g/></g><g transform="translate(15.005492, 59.25)"><g><path d="M 2.140625 -1 C 2.140625 -0.664062 2.070312 -0.410156 1.9375 -0.234375 C 1.8125 -0.0546875 1.625 0.03125 1.375 0.03125 C 1.238281 0.03125 1.117188 0.00390625 1.015625 -0.046875 C 0.910156 -0.109375 0.832031 -0.195312 0.78125 -0.3125 L 0.765625 -0.3125 C 0.765625 -0.269531 0.757812 -0.210938 0.75 -0.140625 C 0.75 -0.0664062 0.75 -0.0195312 0.75 0 L 0.25 0 C 0.257812 -0.113281 0.265625 -0.265625 0.265625 -0.453125 L 0.265625 -2.71875 L 0.78125 -2.71875 L 0.78125 -1.953125 L 0.765625 -1.640625 L 0.78125 -1.640625 C 0.894531 -1.890625 1.101562 -2.015625 1.40625 -2.015625 C 1.644531 -2.015625 1.828125 -1.925781 1.953125 -1.75 C 2.078125 -1.570312 2.140625 -1.320312 2.140625 -1 Z M 1.59375 -1 C 1.59375 -1.21875 1.5625 -1.378906 1.5 -1.484375 C 1.4375 -1.597656 1.335938 -1.65625 1.203125 -1.65625 C 1.054688 -1.65625 0.945312 -1.597656 0.875 -1.484375 C 0.800781 -1.367188 0.765625 -1.203125 0.765625 -0.984375 C 0.765625 -0.773438 0.800781 -0.609375 0.875 -0.484375 C 0.945312 -0.367188 1.050781 -0.3125 1.1875 -0.3125 C 1.457031 -0.3125 1.59375 -0.539062 1.59375 -1 Z M 1.59375 -1 "/></g></g><g transform="translate(17.296142, 59.25)"><g><path d="M 0.515625 0.78125 C 0.390625 0.78125 0.28125 0.769531 0.1875 0.75 L 0.1875 0.390625 C 0.257812 0.398438 0.320312 0.40625 0.375 0.40625 C 0.445312 0.40625 0.503906 0.390625 0.546875 0.359375 C 0.597656 0.335938 0.640625 0.300781 0.671875 0.25 C 0.710938 0.195312 0.757812 0.109375 0.8125 -0.015625 L 0.03125 -1.984375 L 0.578125 -1.984375 L 0.890625 -1.046875 C 0.929688 -0.921875 0.988281 -0.71875 1.0625 -0.4375 L 1.109375 -0.609375 L 1.234375 -1.046875 L 1.53125 -1.984375 L 2.0625 -1.984375 L 1.28125 0.109375 C 1.175781 0.359375 1.066406 0.53125 0.953125 0.625 C 0.835938 0.726562 0.691406 0.78125 0.515625 0.78125 Z M 0.515625 0.78125 "/></g></g><g transform="translate(19.381713, 59.25)"><g/></g><g transform="translate(20.423583, 59.25)"><g><path d="M 0.25 0 L 0.25 -2.578125 L 2.28125 -2.578125 L 2.28125 -2.15625 L 0.796875 -2.15625 L 0.796875 -1.515625 L 2.171875 -1.515625 L 2.171875 -1.09375 L 0.796875 -1.09375 L 0.796875 -0.421875 L 2.359375 -0.421875 L 2.359375 0 Z M 0.25 0 "/></g></g><g transform="translate(22.924804, 59.25)"><g><path d="M 0.75 -1.984375 L 0.75 -0.875 C 0.75 -0.519531 0.863281 -0.34375 1.09375 -0.34375 C 1.21875 -0.34375 1.316406 -0.394531 1.390625 -0.5 C 1.472656 -0.613281 1.515625 -0.753906 1.515625 -0.921875 L 1.515625 -1.984375 L 2.03125 -1.984375 L 2.03125 -0.4375 C 2.03125 -0.269531 2.035156 -0.125 2.046875 0 L 1.546875 0 C 1.535156 -0.175781 1.53125 -0.304688 1.53125 -0.390625 L 1.515625 -0.390625 C 1.453125 -0.242188 1.367188 -0.132812 1.265625 -0.0625 C 1.160156 0 1.035156 0.03125 0.890625 0.03125 C 0.671875 0.03125 0.503906 -0.03125 0.390625 -0.15625 C 0.285156 -0.28125 0.234375 -0.46875 0.234375 -0.71875 L 0.234375 -1.984375 Z M 0.75 -1.984375 "/></g></g><g transform="translate(25.215453, 59.25)"><g><path d="M 1.09375 0.03125 C 0.789062 0.03125 0.554688 -0.0546875 0.390625 -0.234375 C 0.222656 -0.410156 0.140625 -0.660156 0.140625 -0.984375 C 0.140625 -1.304688 0.222656 -1.554688 0.390625 -1.734375 C 0.554688 -1.921875 0.789062 -2.015625 1.09375 -2.015625 C 1.320312 -2.015625 1.515625 -1.957031 1.671875 -1.84375 C 1.828125 -1.726562 1.925781 -1.566406 1.96875 -1.359375 L 1.4375 -1.328125 C 1.425781 -1.429688 1.390625 -1.515625 1.328125 -1.578125 C 1.273438 -1.640625 1.191406 -1.671875 1.078125 -1.671875 C 0.816406 -1.671875 0.6875 -1.445312 0.6875 -1 C 0.6875 -0.539062 0.820312 -0.3125 1.09375 -0.3125 C 1.1875 -0.3125 1.265625 -0.34375 1.328125 -0.40625 C 1.398438 -0.46875 1.441406 -0.5625 1.453125 -0.6875 L 1.96875 -0.65625 C 1.957031 -0.519531 1.910156 -0.398438 1.828125 -0.296875 C 1.753906 -0.191406 1.648438 -0.109375 1.515625 -0.046875 C 1.390625 0.00390625 1.25 0.03125 1.09375 0.03125 Z M 1.09375 0.03125 "/></g></g><g transform="translate(27.301024, 59.25)"><g><path d="M 0.71875 0.03125 C 0.53125 0.03125 0.378906 -0.0195312 0.265625 -0.125 C 0.160156 -0.226562 0.109375 -0.375 0.109375 -0.5625 C 0.109375 -0.769531 0.175781 -0.925781 0.3125 -1.03125 C 0.445312 -1.132812 0.640625 -1.1875 0.890625 -1.1875 L 1.3125 -1.203125 L 1.3125 -1.296875 C 1.3125 -1.429688 1.289062 -1.53125 1.25 -1.59375 C 1.207031 -1.65625 1.132812 -1.6875 1.03125 -1.6875 C 0.9375 -1.6875 0.863281 -1.660156 0.8125 -1.609375 C 0.769531 -1.566406 0.742188 -1.5 0.734375 -1.40625 L 0.203125 -1.4375 C 0.234375 -1.625 0.316406 -1.765625 0.453125 -1.859375 C 0.597656 -1.960938 0.796875 -2.015625 1.046875 -2.015625 C 1.296875 -2.015625 1.488281 -1.953125 1.625 -1.828125 C 1.757812 -1.703125 1.828125 -1.53125 1.828125 -1.3125 L 1.828125 -0.59375 C 1.828125 -0.476562 1.835938 -0.398438 1.859375 -0.359375 C 1.890625 -0.316406 1.9375 -0.296875 2 -0.296875 C 2.03125 -0.296875 2.066406 -0.296875 2.109375 -0.296875 L 2.109375 -0.03125 C 2.078125 -0.0195312 2.046875 -0.0078125 2.015625 0 C 1.992188 0 1.972656 0 1.953125 0 C 1.929688 0.0078125 1.90625 0.015625 1.875 0.015625 C 1.84375 0.015625 1.8125 0.015625 1.78125 0.015625 C 1.644531 0.015625 1.546875 -0.015625 1.484375 -0.078125 C 1.429688 -0.140625 1.394531 -0.234375 1.375 -0.359375 C 1.226562 -0.0976562 1.007812 0.03125 0.71875 0.03125 Z M 1.3125 -0.921875 L 1.0625 -0.90625 C 0.9375 -0.90625 0.847656 -0.894531 0.796875 -0.875 C 0.742188 -0.851562 0.703125 -0.816406 0.671875 -0.765625 C 0.648438 -0.722656 0.640625 -0.664062 0.640625 -0.59375 C 0.640625 -0.5 0.660156 -0.429688 0.703125 -0.390625 C 0.753906 -0.347656 0.816406 -0.328125 0.890625 -0.328125 C 0.960938 -0.328125 1.03125 -0.347656 1.09375 -0.390625 C 1.164062 -0.429688 1.21875 -0.488281 1.25 -0.5625 C 1.289062 -0.644531 1.3125 -0.726562 1.3125 -0.8125 Z M 1.3125 -0.921875 "/></g></g><g transform="translate(29.386595, 59.25)"><g><path d="M 0.265625 0 L 0.265625 -2.71875 L 0.78125 -2.71875 L 0.78125 0 Z M 0.265625 0 "/></g></g><g transform="translate(30.428465, 59.25)"><g><path d="M 0.515625 0.78125 C 0.390625 0.78125 0.28125 0.769531 0.1875 0.75 L 0.1875 0.390625 C 0.257812 0.398438 0.320312 0.40625 0.375 0.40625 C 0.445312 0.40625 0.503906 0.390625 0.546875 0.359375 C 0.597656 0.335938 0.640625 0.300781 0.671875 0.25 C 0.710938 0.195312 0.757812 0.109375 0.8125 -0.015625 L 0.03125 -1.984375 L 0.578125 -1.984375 L 0.890625 -1.046875 C 0.929688 -0.921875 0.988281 -0.71875 1.0625 -0.4375 L 1.109375 -0.609375 L 1.234375 -1.046875 L 1.53125 -1.984375 L 2.0625 -1.984375 L 1.28125 0.109375 C 1.175781 0.359375 1.066406 0.53125 0.953125 0.625 C 0.835938 0.726562 0.691406 0.78125 0.515625 0.78125 Z M 0.515625 0.78125 "/></g></g><g transform="translate(32.514037, 59.25)"><g><path d="M 2.140625 -1 C 2.140625 -0.664062 2.070312 -0.410156 1.9375 -0.234375 C 1.800781 -0.0546875 1.613281 0.03125 1.375 0.03125 C 1.238281 0.03125 1.117188 0.00390625 1.015625 -0.046875 C 0.910156 -0.109375 0.832031 -0.195312 0.78125 -0.3125 L 0.765625 -0.3125 C 0.773438 -0.28125 0.78125 -0.171875 0.78125 0.015625 L 0.78125 0.78125 L 0.265625 0.78125 L 0.265625 -1.53125 C 0.265625 -1.71875 0.257812 -1.867188 0.25 -1.984375 L 0.75 -1.984375 C 0.75 -1.960938 0.75 -1.914062 0.75 -1.84375 C 0.757812 -1.78125 0.765625 -1.71875 0.765625 -1.65625 L 0.78125 -1.65625 C 0.894531 -1.894531 1.101562 -2.015625 1.40625 -2.015625 C 1.632812 -2.015625 1.8125 -1.925781 1.9375 -1.75 C 2.070312 -1.570312 2.140625 -1.320312 2.140625 -1 Z M 1.59375 -1 C 1.59375 -1.445312 1.457031 -1.671875 1.1875 -1.671875 C 1.050781 -1.671875 0.945312 -1.609375 0.875 -1.484375 C 0.800781 -1.367188 0.765625 -1.203125 0.765625 -0.984375 C 0.765625 -0.773438 0.800781 -0.609375 0.875 -0.484375 C 0.945312 -0.367188 1.050781 -0.3125 1.1875 -0.3125 C 1.457031 -0.3125 1.59375 -0.539062 1.59375 -1 Z M 1.59375 -1 "/></g></g></g></svg>