<svg xmlns="http://www.w3.org/2000/svg" xmlns:xlink="http://www.w3.org/1999/xlink" width="100" zoomAndPan="magnify" viewBox="0 0 75 93.749996" height="125" preserveAspectRatio="xMidYMid meet" version="1.0"><defs><g/><clipPath id="a92e1c01f5"><path d="M 0.101562 83 L 42 83 L 42 87 L 0.101562 87 Z M 0.101562 83 " clip-rule="nonzero"/></clipPath><clipPath id="54bdccb2ca"><path d="M 0.101562 87 L 40 87 L 40 91 L 0.101562 91 Z M 0.101562 87 " clip-rule="nonzero"/></clipPath></defs><path fill="#0cc0df" d="M 66.210938 21.851562 L 66.210938 25.8125 L 42.796875 25.8125 L 42.796875 20.730469 L 29.164062 20.730469 L 29.164062 25.8125 L 8.789062 25.8125 L 8.789062 21.851562 L 7.160156 21.851562 L 7.160156 33.9375 L 8.789062 33.9375 L 8.789062 31.566406 L 29.164062 31.566406 L 29.164062 36.761719 L 32.808594 36.761719 L 32.808594 41.089844 L 31.480469 41.089844 L 31.480469 45.992188 L 34.050781 45.992188 L 34.050781 48.097656 L 35.277344 50.410156 L 35.515625 50.410156 L 35.515625 56.078125 L 34.207031 54.773438 L 33.679688 55.300781 L 35.109375 56.734375 L 15.300781 56.734375 L 15.300781 61.726562 L 59.699219 61.726562 L 59.699219 56.734375 L 36.667969 56.734375 L 38.375 55.023438 L 37.847656 54.496094 L 36.261719 56.078125 L 36.261719 50.410156 L 36.496094 50.410156 L 37.726562 48.097656 L 37.726562 45.988281 L 40.296875 45.988281 L 40.296875 41.089844 L 39.152344 41.089844 L 39.152344 36.757812 L 42.796875 36.757812 L 42.796875 31.566406 L 66.210938 31.566406 L 66.210938 33.9375 L 67.839844 33.9375 L 67.839844 21.851562 Z M 8.789062 29.9375 L 8.789062 27.441406 L 29.164062 27.441406 L 29.164062 29.9375 Z M 58.070312 60.097656 L 16.929688 60.097656 L 16.929688 58.363281 L 58.070312 58.363281 Z M 37.5 41 L 35.871094 41 L 35.871094 36.761719 L 37.5 36.761719 Z M 40.417969 33.539062 L 38.789062 33.539062 L 38.789062 25.996094 L 40.417969 25.996094 Z M 42.796875 29.9375 L 42.796875 27.441406 L 66.210938 27.441406 L 66.210938 29.9375 Z M 42.796875 29.9375 " fill-opacity="1" fill-rule="nonzero"/><path fill="#0cc0df" d="M 32.265625 53.890625 L 32.796875 53.363281 L 33.582031 54.148438 L 33.054688 54.679688 Z M 32.265625 53.890625 " fill-opacity="1" fill-rule="nonzero"/><g clip-path="url(#a92e1c01f5)"><g fill="#0cc0df" fill-opacity="1"><g transform="translate(0.0997356, 86.020603)"><g><path d="M 1.453125 -0.390625 C 1.773438 -0.390625 2 -0.550781 2.125 -0.875 L 2.59375 -0.703125 C 2.488281 -0.453125 2.335938 -0.265625 2.140625 -0.140625 C 1.953125 -0.0234375 1.722656 0.03125 1.453125 0.03125 C 1.035156 0.03125 0.710938 -0.0820312 0.484375 -0.3125 C 0.265625 -0.550781 0.15625 -0.878906 0.15625 -1.296875 C 0.15625 -1.710938 0.265625 -2.035156 0.484375 -2.265625 C 0.703125 -2.492188 1.015625 -2.609375 1.421875 -2.609375 C 1.722656 -2.609375 1.96875 -2.546875 2.15625 -2.421875 C 2.351562 -2.304688 2.488281 -2.128906 2.5625 -1.890625 L 2.09375 -1.765625 C 2.050781 -1.890625 1.96875 -1.988281 1.84375 -2.0625 C 1.726562 -2.144531 1.59375 -2.1875 1.4375 -2.1875 C 1.195312 -2.1875 1.007812 -2.109375 0.875 -1.953125 C 0.75 -1.804688 0.6875 -1.585938 0.6875 -1.296875 C 0.6875 -1.003906 0.75 -0.78125 0.875 -0.625 C 1.007812 -0.46875 1.203125 -0.390625 1.453125 -0.390625 Z M 1.453125 -0.390625 "/></g></g><g transform="translate(2.800663, 86.020603)"><g><path d="M 0.265625 0 L 0.265625 -1.515625 C 0.265625 -1.617188 0.257812 -1.707031 0.25 -1.78125 C 0.25 -1.851562 0.25 -1.914062 0.25 -1.96875 L 0.734375 -1.96875 C 0.734375 -1.945312 0.738281 -1.878906 0.75 -1.765625 C 0.757812 -1.660156 0.765625 -1.585938 0.765625 -1.546875 C 0.816406 -1.691406 0.859375 -1.789062 0.890625 -1.84375 C 0.929688 -1.894531 0.976562 -1.9375 1.03125 -1.96875 C 1.09375 -2 1.160156 -2.015625 1.234375 -2.015625 C 1.304688 -2.015625 1.359375 -2.003906 1.390625 -1.984375 L 1.390625 -1.5625 C 1.304688 -1.570312 1.234375 -1.578125 1.171875 -1.578125 C 1.046875 -1.578125 0.945312 -1.523438 0.875 -1.421875 C 0.800781 -1.316406 0.765625 -1.164062 0.765625 -0.96875 L 0.765625 0 Z M 0.265625 0 "/></g></g><g transform="translate(4.256132, 86.020603)"><g><path d="M 1.0625 0.03125 C 0.769531 0.03125 0.539062 -0.0507812 0.375 -0.21875 C 0.21875 -0.394531 0.140625 -0.65625 0.140625 -1 C 0.140625 -1.320312 0.21875 -1.570312 0.375 -1.75 C 0.539062 -1.925781 0.773438 -2.015625 1.078125 -2.015625 C 1.359375 -2.015625 1.570312 -1.921875 1.71875 -1.734375 C 1.875 -1.546875 1.953125 -1.269531 1.953125 -0.90625 L 1.953125 -0.890625 L 0.6875 -0.890625 C 0.6875 -0.691406 0.71875 -0.546875 0.78125 -0.453125 C 0.851562 -0.359375 0.957031 -0.3125 1.09375 -0.3125 C 1.269531 -0.3125 1.382812 -0.390625 1.4375 -0.546875 L 1.921875 -0.5 C 1.773438 -0.144531 1.488281 0.03125 1.0625 0.03125 Z M 1.0625 -1.6875 C 0.945312 -1.6875 0.851562 -1.644531 0.78125 -1.5625 C 0.71875 -1.476562 0.6875 -1.359375 0.6875 -1.203125 L 1.453125 -1.203125 C 1.441406 -1.367188 1.398438 -1.488281 1.328125 -1.5625 C 1.265625 -1.644531 1.175781 -1.6875 1.0625 -1.6875 Z M 1.0625 -1.6875 "/></g></g><g transform="translate(6.336156, 86.020603)"><g><path d="M 0.71875 0.03125 C 0.53125 0.03125 0.378906 -0.0195312 0.265625 -0.125 C 0.160156 -0.226562 0.109375 -0.375 0.109375 -0.5625 C 0.109375 -0.757812 0.175781 -0.910156 0.3125 -1.015625 C 0.445312 -1.128906 0.640625 -1.1875 0.890625 -1.1875 L 1.3125 -1.203125 L 1.3125 -1.296875 C 1.3125 -1.421875 1.285156 -1.515625 1.234375 -1.578125 C 1.191406 -1.640625 1.125 -1.671875 1.03125 -1.671875 C 0.925781 -1.671875 0.851562 -1.648438 0.8125 -1.609375 C 0.769531 -1.566406 0.742188 -1.5 0.734375 -1.40625 L 0.203125 -1.421875 C 0.234375 -1.617188 0.316406 -1.765625 0.453125 -1.859375 C 0.597656 -1.960938 0.796875 -2.015625 1.046875 -2.015625 C 1.296875 -2.015625 1.488281 -1.953125 1.625 -1.828125 C 1.757812 -1.703125 1.828125 -1.523438 1.828125 -1.296875 L 1.828125 -0.578125 C 1.828125 -0.472656 1.835938 -0.398438 1.859375 -0.359375 C 1.890625 -0.316406 1.929688 -0.296875 1.984375 -0.296875 C 2.023438 -0.296875 2.0625 -0.296875 2.09375 -0.296875 L 2.09375 -0.03125 C 2.070312 -0.0195312 2.046875 -0.0078125 2.015625 0 C 1.992188 0 1.96875 0 1.9375 0 C 1.914062 0.0078125 1.890625 0.015625 1.859375 0.015625 C 1.835938 0.015625 1.804688 0.015625 1.765625 0.015625 C 1.640625 0.015625 1.546875 -0.015625 1.484375 -0.078125 C 1.421875 -0.140625 1.382812 -0.234375 1.375 -0.359375 L 1.359375 -0.359375 C 1.222656 -0.0976562 1.007812 0.03125 0.71875 0.03125 Z M 1.3125 -0.90625 L 1.046875 -0.90625 C 0.929688 -0.90625 0.847656 -0.894531 0.796875 -0.875 C 0.742188 -0.851562 0.703125 -0.816406 0.671875 -0.765625 C 0.648438 -0.722656 0.640625 -0.664062 0.640625 -0.59375 C 0.640625 -0.5 0.660156 -0.429688 0.703125 -0.390625 C 0.742188 -0.347656 0.800781 -0.328125 0.875 -0.328125 C 0.957031 -0.328125 1.03125 -0.347656 1.09375 -0.390625 C 1.164062 -0.429688 1.21875 -0.488281 1.25 -0.5625 C 1.289062 -0.644531 1.3125 -0.726562 1.3125 -0.8125 Z M 1.3125 -0.90625 "/></g></g><g transform="translate(8.416181, 86.020603)"><g><path d="M 0.765625 0.03125 C 0.617188 0.03125 0.503906 -0.0078125 0.421875 -0.09375 C 0.335938 -0.175781 0.296875 -0.300781 0.296875 -0.46875 L 0.296875 -1.625 L 0.046875 -1.625 L 0.046875 -1.96875 L 0.328125 -1.96875 L 0.484375 -2.4375 L 0.796875 -2.4375 L 0.796875 -1.96875 L 1.171875 -1.96875 L 1.171875 -1.625 L 0.796875 -1.625 L 0.796875 -0.609375 C 0.796875 -0.503906 0.8125 -0.429688 0.84375 -0.390625 C 0.882812 -0.347656 0.945312 -0.328125 1.03125 -0.328125 C 1.070312 -0.328125 1.128906 -0.332031 1.203125 -0.34375 L 1.203125 -0.03125 C 1.078125 0.0078125 0.929688 0.03125 0.765625 0.03125 Z M 0.765625 0.03125 "/></g></g><g transform="translate(9.661639, 86.020603)"><g><path d="M 1.0625 0.03125 C 0.769531 0.03125 0.539062 -0.0507812 0.375 -0.21875 C 0.21875 -0.394531 0.140625 -0.65625 0.140625 -1 C 0.140625 -1.320312 0.21875 -1.570312 0.375 -1.75 C 0.539062 -1.925781 0.773438 -2.015625 1.078125 -2.015625 C 1.359375 -2.015625 1.570312 -1.921875 1.71875 -1.734375 C 1.875 -1.546875 1.953125 -1.269531 1.953125 -0.90625 L 1.953125 -0.890625 L 0.6875 -0.890625 C 0.6875 -0.691406 0.71875 -0.546875 0.78125 -0.453125 C 0.851562 -0.359375 0.957031 -0.3125 1.09375 -0.3125 C 1.269531 -0.3125 1.382812 -0.390625 1.4375 -0.546875 L 1.921875 -0.5 C 1.773438 -0.144531 1.488281 0.03125 1.0625 0.03125 Z M 1.0625 -1.6875 C 0.945312 -1.6875 0.851562 -1.644531 0.78125 -1.5625 C 0.71875 -1.476562 0.6875 -1.359375 0.6875 -1.203125 L 1.453125 -1.203125 C 1.441406 -1.367188 1.398438 -1.488281 1.328125 -1.5625 C 1.265625 -1.644531 1.175781 -1.6875 1.0625 -1.6875 Z M 1.0625 -1.6875 "/></g></g><g transform="translate(11.741663, 86.020603)"><g><path d="M 1.53125 0 C 1.53125 -0.0195312 1.523438 -0.0664062 1.515625 -0.140625 C 1.515625 -0.210938 1.515625 -0.273438 1.515625 -0.328125 L 1.5 -0.328125 C 1.394531 -0.0859375 1.1875 0.03125 0.875 0.03125 C 0.644531 0.03125 0.46875 -0.0546875 0.34375 -0.234375 C 0.21875 -0.410156 0.15625 -0.660156 0.15625 -0.984375 C 0.15625 -1.304688 0.21875 -1.554688 0.34375 -1.734375 C 0.476562 -1.921875 0.664062 -2.015625 0.90625 -2.015625 C 1.050781 -2.015625 1.171875 -1.984375 1.265625 -1.921875 C 1.367188 -1.859375 1.453125 -1.769531 1.515625 -1.65625 L 1.515625 -2.703125 L 2.015625 -2.703125 L 2.015625 -0.4375 C 2.015625 -0.3125 2.019531 -0.164062 2.03125 0 Z M 1.515625 -1 C 1.515625 -1.207031 1.476562 -1.367188 1.40625 -1.484375 C 1.332031 -1.597656 1.226562 -1.65625 1.09375 -1.65625 C 0.957031 -1.65625 0.851562 -1.597656 0.78125 -1.484375 C 0.71875 -1.378906 0.6875 -1.210938 0.6875 -0.984375 C 0.6875 -0.535156 0.820312 -0.3125 1.09375 -0.3125 C 1.226562 -0.3125 1.332031 -0.367188 1.40625 -0.484375 C 1.476562 -0.609375 1.515625 -0.78125 1.515625 -1 Z M 1.515625 -1 "/></g></g><g transform="translate(14.02622, 86.020603)"><g/></g><g transform="translate(15.065319, 86.020603)"><g><path d="M 2.125 -1 C 2.125 -0.664062 2.054688 -0.410156 1.921875 -0.234375 C 1.796875 -0.0546875 1.613281 0.03125 1.375 0.03125 C 1.226562 0.03125 1.101562 0.00390625 1 -0.046875 C 0.90625 -0.109375 0.828125 -0.195312 0.765625 -0.3125 C 0.765625 -0.269531 0.757812 -0.210938 0.75 -0.140625 C 0.75 -0.0664062 0.75 -0.0195312 0.75 0 L 0.25 0 C 0.257812 -0.113281 0.265625 -0.265625 0.265625 -0.453125 L 0.265625 -2.703125 L 0.765625 -2.703125 L 0.765625 -1.625 C 0.890625 -1.882812 1.101562 -2.015625 1.40625 -2.015625 C 1.632812 -2.015625 1.8125 -1.925781 1.9375 -1.75 C 2.0625 -1.570312 2.125 -1.320312 2.125 -1 Z M 1.59375 -1 C 1.59375 -1.21875 1.554688 -1.378906 1.484375 -1.484375 C 1.421875 -1.597656 1.320312 -1.65625 1.1875 -1.65625 C 1.050781 -1.65625 0.945312 -1.597656 0.875 -1.484375 C 0.800781 -1.367188 0.765625 -1.203125 0.765625 -0.984375 C 0.765625 -0.765625 0.800781 -0.597656 0.875 -0.484375 C 0.945312 -0.367188 1.050781 -0.3125 1.1875 -0.3125 C 1.457031 -0.3125 1.59375 -0.539062 1.59375 -1 Z M 1.59375 -1 "/></g></g><g transform="translate(17.349876, 86.020603)"><g><path d="M 0.515625 0.78125 C 0.390625 0.78125 0.28125 0.769531 0.1875 0.75 L 0.1875 0.390625 C 0.257812 0.398438 0.320312 0.40625 0.375 0.40625 C 0.445312 0.40625 0.503906 0.390625 0.546875 0.359375 C 0.597656 0.335938 0.640625 0.300781 0.671875 0.25 C 0.710938 0.195312 0.757812 0.109375 0.8125 -0.015625 L 0.03125 -1.96875 L 0.578125 -1.96875 L 0.875 -1.046875 C 0.925781 -0.910156 0.988281 -0.707031 1.0625 -0.4375 L 1.109375 -0.609375 L 1.234375 -1.046875 L 1.515625 -1.96875 L 2.0625 -1.96875 L 1.28125 0.109375 C 1.175781 0.359375 1.066406 0.53125 0.953125 0.625 C 0.835938 0.726562 0.691406 0.78125 0.515625 0.78125 Z M 0.515625 0.78125 "/></g></g><g transform="translate(19.429901, 86.020603)"><g/></g><g transform="translate(20.469, 86.020603)"><g><path d="M 0.25 0 L 0.25 -2.5625 L 0.78125 -2.5625 L 0.78125 -0.421875 L 2.171875 -0.421875 L 2.171875 0 Z M 0.25 0 "/></g></g><g transform="translate(22.753557, 86.020603)"><g><path d="M 0.75 -1.96875 L 0.75 -0.859375 C 0.75 -0.515625 0.863281 -0.34375 1.09375 -0.34375 C 1.21875 -0.34375 1.316406 -0.394531 1.390625 -0.5 C 1.472656 -0.613281 1.515625 -0.753906 1.515625 -0.921875 L 1.515625 -1.96875 L 2.015625 -1.96875 L 2.015625 -0.4375 C 2.015625 -0.269531 2.019531 -0.125 2.03125 0 L 1.546875 0 C 1.535156 -0.175781 1.53125 -0.304688 1.53125 -0.390625 L 1.515625 -0.390625 C 1.441406 -0.242188 1.351562 -0.132812 1.25 -0.0625 C 1.144531 0 1.019531 0.03125 0.875 0.03125 C 0.664062 0.03125 0.503906 -0.03125 0.390625 -0.15625 C 0.285156 -0.28125 0.234375 -0.46875 0.234375 -0.71875 L 0.234375 -1.96875 Z M 0.75 -1.96875 "/></g></g><g transform="translate(25.038114, 86.020603)"><g><path d="M 1.078125 0.03125 C 0.785156 0.03125 0.554688 -0.0546875 0.390625 -0.234375 C 0.222656 -0.410156 0.140625 -0.65625 0.140625 -0.96875 C 0.140625 -1.300781 0.222656 -1.554688 0.390625 -1.734375 C 0.554688 -1.921875 0.789062 -2.015625 1.09375 -2.015625 C 1.320312 -2.015625 1.507812 -1.953125 1.65625 -1.828125 C 1.8125 -1.710938 1.910156 -1.550781 1.953125 -1.34375 L 1.4375 -1.328125 C 1.425781 -1.429688 1.390625 -1.507812 1.328125 -1.5625 C 1.265625 -1.625 1.179688 -1.65625 1.078125 -1.65625 C 0.816406 -1.65625 0.6875 -1.4375 0.6875 -1 C 0.6875 -0.539062 0.820312 -0.3125 1.09375 -0.3125 C 1.1875 -0.3125 1.265625 -0.34375 1.328125 -0.40625 C 1.390625 -0.46875 1.429688 -0.5625 1.453125 -0.6875 L 1.96875 -0.65625 C 1.945312 -0.519531 1.894531 -0.398438 1.8125 -0.296875 C 1.738281 -0.191406 1.640625 -0.109375 1.515625 -0.046875 C 1.390625 0.00390625 1.242188 0.03125 1.078125 0.03125 Z M 1.078125 0.03125 "/></g></g><g transform="translate(27.118138, 86.020603)"><g><path d="M 0.71875 0.03125 C 0.53125 0.03125 0.378906 -0.0195312 0.265625 -0.125 C 0.160156 -0.226562 0.109375 -0.375 0.109375 -0.5625 C 0.109375 -0.757812 0.175781 -0.910156 0.3125 -1.015625 C 0.445312 -1.128906 0.640625 -1.1875 0.890625 -1.1875 L 1.3125 -1.203125 L 1.3125 -1.296875 C 1.3125 -1.421875 1.285156 -1.515625 1.234375 -1.578125 C 1.191406 -1.640625 1.125 -1.671875 1.03125 -1.671875 C 0.925781 -1.671875 0.851562 -1.648438 0.8125 -1.609375 C 0.769531 -1.566406 0.742188 -1.5 0.734375 -1.40625 L 0.203125 -1.421875 C 0.234375 -1.617188 0.316406 -1.765625 0.453125 -1.859375 C 0.597656 -1.960938 0.796875 -2.015625 1.046875 -2.015625 C 1.296875 -2.015625 1.488281 -1.953125 1.625 -1.828125 C 1.757812 -1.703125 1.828125 -1.523438 1.828125 -1.296875 L 1.828125 -0.578125 C 1.828125 -0.472656 1.835938 -0.398438 1.859375 -0.359375 C 1.890625 -0.316406 1.929688 -0.296875 1.984375 -0.296875 C 2.023438 -0.296875 2.0625 -0.296875 2.09375 -0.296875 L 2.09375 -0.03125 C 2.070312 -0.0195312 2.046875 -0.0078125 2.015625 0 C 1.992188 0 1.96875 0 1.9375 0 C 1.914062 0.0078125 1.890625 0.015625 1.859375 0.015625 C 1.835938 0.015625 1.804688 0.015625 1.765625 0.015625 C 1.640625 0.015625 1.546875 -0.015625 1.484375 -0.078125 C 1.421875 -0.140625 1.382812 -0.234375 1.375 -0.359375 L 1.359375 -0.359375 C 1.222656 -0.0976562 1.007812 0.03125 0.71875 0.03125 Z M 1.3125 -0.90625 L 1.046875 -0.90625 C 0.929688 -0.90625 0.847656 -0.894531 0.796875 -0.875 C 0.742188 -0.851562 0.703125 -0.816406 0.671875 -0.765625 C 0.648438 -0.722656 0.640625 -0.664062 0.640625 -0.59375 C 0.640625 -0.5 0.660156 -0.429688 0.703125 -0.390625 C 0.742188 -0.347656 0.800781 -0.328125 0.875 -0.328125 C 0.957031 -0.328125 1.03125 -0.347656 1.09375 -0.390625 C 1.164062 -0.429688 1.21875 -0.488281 1.25 -0.5625 C 1.289062 -0.644531 1.3125 -0.726562 1.3125 -0.8125 Z M 1.3125 -0.90625 "/></g></g><g transform="translate(29.198163, 86.020603)"><g><path d="M 1.921875 -0.578125 C 1.921875 -0.390625 1.84375 -0.238281 1.6875 -0.125 C 1.53125 -0.0195312 1.316406 0.03125 1.046875 0.03125 C 0.773438 0.03125 0.566406 -0.0078125 0.421875 -0.09375 C 0.273438 -0.175781 0.175781 -0.3125 0.125 -0.5 L 0.578125 -0.5625 C 0.609375 -0.46875 0.65625 -0.398438 0.71875 -0.359375 C 0.78125 -0.316406 0.890625 -0.296875 1.046875 -0.296875 C 1.179688 -0.296875 1.28125 -0.3125 1.34375 -0.34375 C 1.414062 -0.382812 1.453125 -0.445312 1.453125 -0.53125 C 1.453125 -0.59375 1.425781 -0.640625 1.375 -0.671875 C 1.320312 -0.710938 1.234375 -0.742188 1.109375 -0.765625 C 0.816406 -0.828125 0.617188 -0.878906 0.515625 -0.921875 C 0.421875 -0.972656 0.34375 -1.035156 0.28125 -1.109375 C 0.226562 -1.191406 0.203125 -1.289062 0.203125 -1.40625 C 0.203125 -1.601562 0.273438 -1.753906 0.421875 -1.859375 C 0.566406 -1.960938 0.773438 -2.015625 1.046875 -2.015625 C 1.273438 -2.015625 1.460938 -1.96875 1.609375 -1.875 C 1.753906 -1.78125 1.84375 -1.648438 1.875 -1.484375 L 1.421875 -1.4375 C 1.410156 -1.507812 1.375 -1.566406 1.3125 -1.609375 C 1.257812 -1.648438 1.171875 -1.671875 1.046875 -1.671875 C 0.921875 -1.671875 0.828125 -1.65625 0.765625 -1.625 C 0.710938 -1.59375 0.6875 -1.539062 0.6875 -1.46875 C 0.6875 -1.40625 0.707031 -1.359375 0.75 -1.328125 C 0.800781 -1.296875 0.878906 -1.269531 0.984375 -1.25 C 1.140625 -1.21875 1.273438 -1.179688 1.390625 -1.140625 C 1.515625 -1.109375 1.613281 -1.070312 1.6875 -1.03125 C 1.757812 -0.988281 1.816406 -0.929688 1.859375 -0.859375 C 1.898438 -0.785156 1.921875 -0.691406 1.921875 -0.578125 Z M 1.921875 -0.578125 "/></g></g><g transform="translate(31.278187, 86.020603)"><g/></g><g transform="translate(32.317286, 86.020603)"><g><path d="M 1.90625 0 L 1.90625 -1.09375 L 0.78125 -1.09375 L 0.78125 0 L 0.25 0 L 0.25 -2.5625 L 0.78125 -2.5625 L 0.78125 -1.546875 L 1.90625 -1.546875 L 1.90625 -2.5625 L 2.4375 -2.5625 L 2.4375 0 Z M 1.90625 0 "/></g></g><g transform="translate(35.018213, 86.020603)"><g><path d="M 1.0625 0.03125 C 0.769531 0.03125 0.539062 -0.0507812 0.375 -0.21875 C 0.21875 -0.394531 0.140625 -0.65625 0.140625 -1 C 0.140625 -1.320312 0.21875 -1.570312 0.375 -1.75 C 0.539062 -1.925781 0.773438 -2.015625 1.078125 -2.015625 C 1.359375 -2.015625 1.570312 -1.921875 1.71875 -1.734375 C 1.875 -1.546875 1.953125 -1.269531 1.953125 -0.90625 L 1.953125 -0.890625 L 0.6875 -0.890625 C 0.6875 -0.691406 0.71875 -0.546875 0.78125 -0.453125 C 0.851562 -0.359375 0.957031 -0.3125 1.09375 -0.3125 C 1.269531 -0.3125 1.382812 -0.390625 1.4375 -0.546875 L 1.921875 -0.5 C 1.773438 -0.144531 1.488281 0.03125 1.0625 0.03125 Z M 1.0625 -1.6875 C 0.945312 -1.6875 0.851562 -1.644531 0.78125 -1.5625 C 0.71875 -1.476562 0.6875 -1.359375 0.6875 -1.203125 L 1.453125 -1.203125 C 1.441406 -1.367188 1.398438 -1.488281 1.328125 -1.5625 C 1.265625 -1.644531 1.175781 -1.6875 1.0625 -1.6875 Z M 1.0625 -1.6875 "/></g></g><g transform="translate(37.098238, 86.020603)"><g><path d="M 0.265625 0 L 0.265625 -2.703125 L 0.765625 -2.703125 L 0.765625 0 Z M 0.265625 0 "/></g></g><g transform="translate(38.137337, 86.020603)"><g><path d="M 0.265625 0 L 0.265625 -2.703125 L 0.765625 -2.703125 L 0.765625 0 Z M 0.265625 0 "/></g></g><g transform="translate(39.176436, 86.020603)"><g><path d="M 1.0625 0.03125 C 0.769531 0.03125 0.539062 -0.0507812 0.375 -0.21875 C 0.21875 -0.394531 0.140625 -0.65625 0.140625 -1 C 0.140625 -1.320312 0.21875 -1.570312 0.375 -1.75 C 0.539062 -1.925781 0.773438 -2.015625 1.078125 -2.015625 C 1.359375 -2.015625 1.570312 -1.921875 1.71875 -1.734375 C 1.875 -1.546875 1.953125 -1.269531 1.953125 -0.90625 L 1.953125 -0.890625 L 0.6875 -0.890625 C 0.6875 -0.691406 0.71875 -0.546875 0.78125 -0.453125 C 0.851562 -0.359375 0.957031 -0.3125 1.09375 -0.3125 C 1.269531 -0.3125 1.382812 -0.390625 1.4375 -0.546875 L 1.921875 -0.5 C 1.773438 -0.144531 1.488281 0.03125 1.0625 0.03125 Z M 1.0625 -1.6875 C 0.945312 -1.6875 0.851562 -1.644531 0.78125 -1.5625 C 0.71875 -1.476562 0.6875 -1.359375 0.6875 -1.203125 L 1.453125 -1.203125 C 1.441406 -1.367188 1.398438 -1.488281 1.328125 -1.5625 C 1.265625 -1.644531 1.175781 -1.6875 1.0625 -1.6875 Z M 1.0625 -1.6875 "/></g></g></g></g><g clip-path="url(#54bdccb2ca)"><g fill="#0cc0df" fill-opacity="1"><g transform="translate(0.0997356, 89.76063)"><g><path d="M 0.859375 -1.625 L 0.859375 0 L 0.359375 0 L 0.359375 -1.625 L 0.0625 -1.625 L 0.0625 -1.96875 L 0.359375 -1.96875 L 0.359375 -2.171875 C 0.359375 -2.359375 0.40625 -2.492188 0.5 -2.578125 C 0.59375 -2.660156 0.734375 -2.703125 0.921875 -2.703125 C 1.023438 -2.703125 1.132812 -2.691406 1.25 -2.671875 L 1.25 -2.34375 C 1.195312 -2.351562 1.144531 -2.359375 1.09375 -2.359375 C 1.007812 -2.359375 0.945312 -2.34375 0.90625 -2.3125 C 0.875 -2.28125 0.859375 -2.21875 0.859375 -2.125 L 0.859375 -1.96875 L 1.25 -1.96875 L 1.25 -1.625 Z M 0.859375 -1.625 "/></g></g><g transform="translate(1.345194, 89.76063)"><g><path d="M 0.265625 0 L 0.265625 -1.515625 C 0.265625 -1.617188 0.257812 -1.707031 0.25 -1.78125 C 0.25 -1.851562 0.25 -1.914062 0.25 -1.96875 L 0.734375 -1.96875 C 0.734375 -1.945312 0.738281 -1.878906 0.75 -1.765625 C 0.757812 -1.660156 0.765625 -1.585938 0.765625 -1.546875 C 0.816406 -1.691406 0.859375 -1.789062 0.890625 -1.84375 C 0.929688 -1.894531 0.976562 -1.9375 1.03125 -1.96875 C 1.09375 -2 1.160156 -2.015625 1.234375 -2.015625 C 1.304688 -2.015625 1.359375 -2.003906 1.390625 -1.984375 L 1.390625 -1.5625 C 1.304688 -1.570312 1.234375 -1.578125 1.171875 -1.578125 C 1.046875 -1.578125 0.945312 -1.523438 0.875 -1.421875 C 0.800781 -1.316406 0.765625 -1.164062 0.765625 -0.96875 L 0.765625 0 Z M 0.265625 0 "/></g></g><g transform="translate(2.800663, 89.76063)"><g><path d="M 2.140625 -0.984375 C 2.140625 -0.671875 2.050781 -0.421875 1.875 -0.234375 C 1.695312 -0.0546875 1.445312 0.03125 1.125 0.03125 C 0.820312 0.03125 0.582031 -0.0546875 0.40625 -0.234375 C 0.226562 -0.421875 0.140625 -0.671875 0.140625 -0.984375 C 0.140625 -1.304688 0.226562 -1.554688 0.40625 -1.734375 C 0.582031 -1.921875 0.828125 -2.015625 1.140625 -2.015625 C 1.460938 -2.015625 1.707031 -1.925781 1.875 -1.75 C 2.050781 -1.570312 2.140625 -1.316406 2.140625 -0.984375 Z M 1.59375 -0.984375 C 1.59375 -1.222656 1.554688 -1.394531 1.484375 -1.5 C 1.410156 -1.601562 1.300781 -1.65625 1.15625 -1.65625 C 0.84375 -1.65625 0.6875 -1.429688 0.6875 -0.984375 C 0.6875 -0.765625 0.722656 -0.597656 0.796875 -0.484375 C 0.867188 -0.367188 0.976562 -0.3125 1.125 -0.3125 C 1.4375 -0.3125 1.59375 -0.535156 1.59375 -0.984375 Z M 1.59375 -0.984375 "/></g></g><g transform="translate(5.08522, 89.76063)"><g><path d="M 1.421875 0 L 1.421875 -1.109375 C 1.421875 -1.453125 1.320312 -1.625 1.125 -1.625 C 1.019531 -1.625 0.929688 -1.570312 0.859375 -1.46875 C 0.796875 -1.363281 0.765625 -1.226562 0.765625 -1.0625 L 0.765625 0 L 0.265625 0 L 0.265625 -1.53125 C 0.265625 -1.632812 0.257812 -1.71875 0.25 -1.78125 C 0.25 -1.851562 0.25 -1.914062 0.25 -1.96875 L 0.734375 -1.96875 C 0.734375 -1.945312 0.738281 -1.882812 0.75 -1.78125 C 0.757812 -1.6875 0.765625 -1.617188 0.765625 -1.578125 C 0.828125 -1.734375 0.90625 -1.84375 1 -1.90625 C 1.09375 -1.976562 1.207031 -2.015625 1.34375 -2.015625 C 1.644531 -2.015625 1.828125 -1.867188 1.890625 -1.578125 L 1.90625 -1.578125 C 1.96875 -1.734375 2.046875 -1.84375 2.140625 -1.90625 C 2.234375 -1.976562 2.351562 -2.015625 2.5 -2.015625 C 2.6875 -2.015625 2.832031 -1.945312 2.9375 -1.8125 C 3.039062 -1.6875 3.09375 -1.5 3.09375 -1.25 L 3.09375 0 L 2.578125 0 L 2.578125 -1.109375 C 2.578125 -1.453125 2.476562 -1.625 2.28125 -1.625 C 2.175781 -1.625 2.09375 -1.578125 2.03125 -1.484375 C 1.96875 -1.390625 1.9375 -1.253906 1.9375 -1.078125 L 1.9375 0 Z M 1.421875 0 "/></g></g><g transform="translate(8.410702, 89.76063)"><g/></g><g transform="translate(9.449801, 89.76063)"><g><path d="M 0.765625 0.03125 C 0.617188 0.03125 0.503906 -0.0078125 0.421875 -0.09375 C 0.335938 -0.175781 0.296875 -0.300781 0.296875 -0.46875 L 0.296875 -1.625 L 0.046875 -1.625 L 0.046875 -1.96875 L 0.328125 -1.96875 L 0.484375 -2.4375 L 0.796875 -2.4375 L 0.796875 -1.96875 L 1.171875 -1.96875 L 1.171875 -1.625 L 0.796875 -1.625 L 0.796875 -0.609375 C 0.796875 -0.503906 0.8125 -0.429688 0.84375 -0.390625 C 0.882812 -0.347656 0.945312 -0.328125 1.03125 -0.328125 C 1.070312 -0.328125 1.128906 -0.332031 1.203125 -0.34375 L 1.203125 -0.03125 C 1.078125 0.0078125 0.929688 0.03125 0.765625 0.03125 Z M 0.765625 0.03125 "/></g></g><g transform="translate(10.695259, 89.76063)"><g><path d="M 0.765625 -1.578125 C 0.835938 -1.734375 0.925781 -1.84375 1.03125 -1.90625 C 1.132812 -1.976562 1.257812 -2.015625 1.40625 -2.015625 C 1.613281 -2.015625 1.769531 -1.945312 1.875 -1.8125 C 1.988281 -1.6875 2.046875 -1.5 2.046875 -1.25 L 2.046875 0 L 1.53125 0 L 1.53125 -1.109375 C 1.53125 -1.453125 1.414062 -1.625 1.1875 -1.625 C 1.0625 -1.625 0.957031 -1.570312 0.875 -1.46875 C 0.800781 -1.363281 0.765625 -1.226562 0.765625 -1.0625 L 0.765625 0 L 0.265625 0 L 0.265625 -2.703125 L 0.765625 -2.703125 L 0.765625 -1.96875 C 0.765625 -1.832031 0.765625 -1.703125 0.765625 -1.578125 Z M 0.765625 -1.578125 "/></g></g><g transform="translate(12.979816, 89.76063)"><g><path d="M 1.0625 0.03125 C 0.769531 0.03125 0.539062 -0.0507812 0.375 -0.21875 C 0.21875 -0.394531 0.140625 -0.65625 0.140625 -1 C 0.140625 -1.320312 0.21875 -1.570312 0.375 -1.75 C 0.539062 -1.925781 0.773438 -2.015625 1.078125 -2.015625 C 1.359375 -2.015625 1.570312 -1.921875 1.71875 -1.734375 C 1.875 -1.546875 1.953125 -1.269531 1.953125 -0.90625 L 1.953125 -0.890625 L 0.6875 -0.890625 C 0.6875 -0.691406 0.71875 -0.546875 0.78125 -0.453125 C 0.851562 -0.359375 0.957031 -0.3125 1.09375 -0.3125 C 1.269531 -0.3125 1.382812 -0.390625 1.4375 -0.546875 L 1.921875 -0.5 C 1.773438 -0.144531 1.488281 0.03125 1.0625 0.03125 Z M 1.0625 -1.6875 C 0.945312 -1.6875 0.851562 -1.644531 0.78125 -1.5625 C 0.71875 -1.476562 0.6875 -1.359375 0.6875 -1.203125 L 1.453125 -1.203125 C 1.441406 -1.367188 1.398438 -1.488281 1.328125 -1.5625 C 1.265625 -1.644531 1.175781 -1.6875 1.0625 -1.6875 Z M 1.0625 -1.6875 "/></g></g><g transform="translate(15.059841, 89.76063)"><g/></g><g transform="translate(16.09894, 89.76063)"><g><path d="M 1.8125 0 L 0.6875 -1.984375 C 0.71875 -1.785156 0.734375 -1.628906 0.734375 -1.515625 L 0.734375 0 L 0.25 0 L 0.25 -2.5625 L 0.859375 -2.5625 L 2 -0.578125 C 1.976562 -0.753906 1.96875 -0.921875 1.96875 -1.078125 L 1.96875 -2.5625 L 2.4375 -2.5625 L 2.4375 0 Z M 1.8125 0 "/></g></g><g transform="translate(18.799867, 89.76063)"><g><path d="M 2.140625 -0.984375 C 2.140625 -0.671875 2.050781 -0.421875 1.875 -0.234375 C 1.695312 -0.0546875 1.445312 0.03125 1.125 0.03125 C 0.820312 0.03125 0.582031 -0.0546875 0.40625 -0.234375 C 0.226562 -0.421875 0.140625 -0.671875 0.140625 -0.984375 C 0.140625 -1.304688 0.226562 -1.554688 0.40625 -1.734375 C 0.582031 -1.921875 0.828125 -2.015625 1.140625 -2.015625 C 1.460938 -2.015625 1.707031 -1.925781 1.875 -1.75 C 2.050781 -1.570312 2.140625 -1.316406 2.140625 -0.984375 Z M 1.59375 -0.984375 C 1.59375 -1.222656 1.554688 -1.394531 1.484375 -1.5 C 1.410156 -1.601562 1.300781 -1.65625 1.15625 -1.65625 C 0.84375 -1.65625 0.6875 -1.429688 0.6875 -0.984375 C 0.6875 -0.765625 0.722656 -0.597656 0.796875 -0.484375 C 0.867188 -0.367188 0.976562 -0.3125 1.125 -0.3125 C 1.4375 -0.3125 1.59375 -0.535156 1.59375 -0.984375 Z M 1.59375 -0.984375 "/></g></g><g transform="translate(21.084424, 89.76063)"><g><path d="M 0.75 -1.96875 L 0.75 -0.859375 C 0.75 -0.515625 0.863281 -0.34375 1.09375 -0.34375 C 1.21875 -0.34375 1.316406 -0.394531 1.390625 -0.5 C 1.472656 -0.613281 1.515625 -0.753906 1.515625 -0.921875 L 1.515625 -1.96875 L 2.015625 -1.96875 L 2.015625 -0.4375 C 2.015625 -0.269531 2.019531 -0.125 2.03125 0 L 1.546875 0 C 1.535156 -0.175781 1.53125 -0.304688 1.53125 -0.390625 L 1.515625 -0.390625 C 1.441406 -0.242188 1.351562 -0.132812 1.25 -0.0625 C 1.144531 0 1.019531 0.03125 0.875 0.03125 C 0.664062 0.03125 0.503906 -0.03125 0.390625 -0.15625 C 0.285156 -0.28125 0.234375 -0.46875 0.234375 -0.71875 L 0.234375 -1.96875 Z M 0.75 -1.96875 "/></g></g><g transform="translate(23.368981, 89.76063)"><g><path d="M 1.53125 0 L 1.53125 -1.109375 C 1.53125 -1.453125 1.414062 -1.625 1.1875 -1.625 C 1.0625 -1.625 0.957031 -1.570312 0.875 -1.46875 C 0.800781 -1.363281 0.765625 -1.226562 0.765625 -1.0625 L 0.765625 0 L 0.265625 0 L 0.265625 -1.53125 C 0.265625 -1.632812 0.257812 -1.71875 0.25 -1.78125 C 0.25 -1.851562 0.25 -1.914062 0.25 -1.96875 L 0.734375 -1.96875 C 0.734375 -1.945312 0.738281 -1.882812 0.75 -1.78125 C 0.757812 -1.6875 0.765625 -1.617188 0.765625 -1.578125 C 0.835938 -1.734375 0.925781 -1.84375 1.03125 -1.90625 C 1.132812 -1.976562 1.257812 -2.015625 1.40625 -2.015625 C 1.613281 -2.015625 1.769531 -1.945312 1.875 -1.8125 C 1.988281 -1.6875 2.046875 -1.5 2.046875 -1.25 L 2.046875 0 Z M 1.53125 0 "/></g></g><g transform="translate(25.653538, 89.76063)"><g/></g><g transform="translate(26.692637, 89.76063)"><g><path d="M 2.359375 -1.75 C 2.359375 -1.59375 2.320312 -1.445312 2.25 -1.3125 C 2.175781 -1.1875 2.066406 -1.085938 1.921875 -1.015625 C 1.785156 -0.941406 1.617188 -0.90625 1.421875 -0.90625 L 0.78125 -0.90625 L 0.78125 0 L 0.25 0 L 0.25 -2.5625 L 1.40625 -2.5625 C 1.707031 -2.5625 1.941406 -2.488281 2.109375 -2.34375 C 2.273438 -2.207031 2.359375 -2.007812 2.359375 -1.75 Z M 1.828125 -1.75 C 1.828125 -2.019531 1.664062 -2.15625 1.34375 -2.15625 L 0.78125 -2.15625 L 0.78125 -1.3125 L 1.359375 -1.3125 C 1.503906 -1.3125 1.617188 -1.347656 1.703125 -1.421875 C 1.785156 -1.492188 1.828125 -1.601562 1.828125 -1.75 Z M 1.828125 -1.75 "/></g></g><g transform="translate(29.187206, 89.76063)"><g><path d="M 0.265625 0 L 0.265625 -1.515625 C 0.265625 -1.617188 0.257812 -1.707031 0.25 -1.78125 C 0.25 -1.851562 0.25 -1.914062 0.25 -1.96875 L 0.734375 -1.96875 C 0.734375 -1.945312 0.738281 -1.878906 0.75 -1.765625 C 0.757812 -1.660156 0.765625 -1.585938 0.765625 -1.546875 C 0.816406 -1.691406 0.859375 -1.789062 0.890625 -1.84375 C 0.929688 -1.894531 0.976562 -1.9375 1.03125 -1.96875 C 1.09375 -2 1.160156 -2.015625 1.234375 -2.015625 C 1.304688 -2.015625 1.359375 -2.003906 1.390625 -1.984375 L 1.390625 -1.5625 C 1.304688 -1.570312 1.234375 -1.578125 1.171875 -1.578125 C 1.046875 -1.578125 0.945312 -1.523438 0.875 -1.421875 C 0.800781 -1.316406 0.765625 -1.164062 0.765625 -0.96875 L 0.765625 0 Z M 0.265625 0 "/></g></g><g transform="translate(30.642675, 89.76063)"><g><path d="M 2.140625 -0.984375 C 2.140625 -0.671875 2.050781 -0.421875 1.875 -0.234375 C 1.695312 -0.0546875 1.445312 0.03125 1.125 0.03125 C 0.820312 0.03125 0.582031 -0.0546875 0.40625 -0.234375 C 0.226562 -0.421875 0.140625 -0.671875 0.140625 -0.984375 C 0.140625 -1.304688 0.226562 -1.554688 0.40625 -1.734375 C 0.582031 -1.921875 0.828125 -2.015625 1.140625 -2.015625 C 1.460938 -2.015625 1.707031 -1.925781 1.875 -1.75 C 2.050781 -1.570312 2.140625 -1.316406 2.140625 -0.984375 Z M 1.59375 -0.984375 C 1.59375 -1.222656 1.554688 -1.394531 1.484375 -1.5 C 1.410156 -1.601562 1.300781 -1.65625 1.15625 -1.65625 C 0.84375 -1.65625 0.6875 -1.429688 0.6875 -0.984375 C 0.6875 -0.765625 0.722656 -0.597656 0.796875 -0.484375 C 0.867188 -0.367188 0.976562 -0.3125 1.125 -0.3125 C 1.4375 -0.3125 1.59375 -0.535156 1.59375 -0.984375 Z M 1.59375 -0.984375 "/></g></g><g transform="translate(32.927232, 89.76063)"><g><path d="M 0.265625 -2.328125 L 0.265625 -2.703125 L 0.78125 -2.703125 L 0.78125 -2.328125 Z M 0.25 0.78125 C 0.125 0.78125 0.0195312 0.773438 -0.0625 0.765625 L -0.0625 0.390625 L 0.03125 0.40625 C 0.125 0.40625 0.1875 0.382812 0.21875 0.34375 C 0.25 0.3125 0.265625 0.234375 0.265625 0.109375 L 0.265625 -1.96875 L 0.78125 -1.96875 L 0.78125 0.234375 C 0.78125 0.410156 0.734375 0.546875 0.640625 0.640625 C 0.554688 0.734375 0.425781 0.78125 0.25 0.78125 Z M 0.25 0.78125 "/></g></g><g transform="translate(33.966331, 89.76063)"><g><path d="M 1.0625 0.03125 C 0.769531 0.03125 0.539062 -0.0507812 0.375 -0.21875 C 0.21875 -0.394531 0.140625 -0.65625 0.140625 -1 C 0.140625 -1.320312 0.21875 -1.570312 0.375 -1.75 C 0.539062 -1.925781 0.773438 -2.015625 1.078125 -2.015625 C 1.359375 -2.015625 1.570312 -1.921875 1.71875 -1.734375 C 1.875 -1.546875 1.953125 -1.269531 1.953125 -0.90625 L 1.953125 -0.890625 L 0.6875 -0.890625 C 0.6875 -0.691406 0.71875 -0.546875 0.78125 -0.453125 C 0.851562 -0.359375 0.957031 -0.3125 1.09375 -0.3125 C 1.269531 -0.3125 1.382812 -0.390625 1.4375 -0.546875 L 1.921875 -0.5 C 1.773438 -0.144531 1.488281 0.03125 1.0625 0.03125 Z M 1.0625 -1.6875 C 0.945312 -1.6875 0.851562 -1.644531 0.78125 -1.5625 C 0.71875 -1.476562 0.6875 -1.359375 0.6875 -1.203125 L 1.453125 -1.203125 C 1.441406 -1.367188 1.398438 -1.488281 1.328125 -1.5625 C 1.265625 -1.644531 1.175781 -1.6875 1.0625 -1.6875 Z M 1.0625 -1.6875 "/></g></g><g transform="translate(36.046355, 89.76063)"><g><path d="M 1.078125 0.03125 C 0.785156 0.03125 0.554688 -0.0546875 0.390625 -0.234375 C 0.222656 -0.410156 0.140625 -0.65625 0.140625 -0.96875 C 0.140625 -1.300781 0.222656 -1.554688 0.390625 -1.734375 C 0.554688 -1.921875 0.789062 -2.015625 1.09375 -2.015625 C 1.320312 -2.015625 1.507812 -1.953125 1.65625 -1.828125 C 1.8125 -1.710938 1.910156 -1.550781 1.953125 -1.34375 L 1.4375 -1.328125 C 1.425781 -1.429688 1.390625 -1.507812 1.328125 -1.5625 C 1.265625 -1.625 1.179688 -1.65625 1.078125 -1.65625 C 0.816406 -1.65625 0.6875 -1.4375 0.6875 -1 C 0.6875 -0.539062 0.820312 -0.3125 1.09375 -0.3125 C 1.1875 -0.3125 1.265625 -0.34375 1.328125 -0.40625 C 1.390625 -0.46875 1.429688 -0.5625 1.453125 -0.6875 L 1.96875 -0.65625 C 1.945312 -0.519531 1.894531 -0.398438 1.8125 -0.296875 C 1.738281 -0.191406 1.640625 -0.109375 1.515625 -0.046875 C 1.390625 0.00390625 1.242188 0.03125 1.078125 0.03125 Z M 1.078125 0.03125 "/></g></g><g transform="translate(38.12638, 89.76063)"><g><path d="M 0.765625 0.03125 C 0.617188 0.03125 0.503906 -0.0078125 0.421875 -0.09375 C 0.335938 -0.175781 0.296875 -0.300781 0.296875 -0.46875 L 0.296875 -1.625 L 0.046875 -1.625 L 0.046875 -1.96875 L 0.328125 -1.96875 L 0.484375 -2.4375 L 0.796875 -2.4375 L 0.796875 -1.96875 L 1.171875 -1.96875 L 1.171875 -1.625 L 0.796875 -1.625 L 0.796875 -0.609375 C 0.796875 -0.503906 0.8125 -0.429688 0.84375 -0.390625 C 0.882812 -0.347656 0.945312 -0.328125 1.03125 -0.328125 C 1.070312 -0.328125 1.128906 -0.332031 1.203125 -0.34375 L 1.203125 -0.03125 C 1.078125 0.0078125 0.929688 0.03125 0.765625 0.03125 Z M 0.765625 0.03125 "/></g></g></g></g></svg>