<svg xmlns="http://www.w3.org/2000/svg" xmlns:xlink="http://www.w3.org/1999/xlink" width="762" zoomAndPan="magnify" viewBox="0 0 571.5 632.249985" height="843" preserveAspectRatio="xMidYMid meet" version="1.0"><defs><g/><clipPath id="e33dde0aef"><path d="M 403 0 L 570.910156 0 L 570.910156 107 L 403 107 Z M 403 0 " clip-rule="nonzero"/></clipPath><clipPath id="765d69b36c"><path d="M 0.0898438 95 L 415 95 L 415 506 L 0.0898438 506 Z M 0.0898438 95 " clip-rule="nonzero"/></clipPath><clipPath id="c37e105f96"><path d="M 0.0898438 513 L 42 513 L 42 518 L 0.0898438 518 Z M 0.0898438 513 " clip-rule="nonzero"/></clipPath><clipPath id="fa607f2dd1"><path d="M 0.0898438 517 L 40 517 L 40 521 L 0.0898438 521 Z M 0.0898438 517 " clip-rule="nonzero"/></clipPath></defs><g clip-path="url(#e33dde0aef)"><path fill="#5e17eb" d="M 403.925781 97.441406 C 460.144531 41.226562 481.132812 39.726562 499.871094 38.226562 C 514.863281 37.476562 527.605469 36.726562 561.335938 0 L 571.078125 8.996094 C 533.601562 49.46875 518.609375 50.96875 501.371094 51.71875 C 484.878906 53.21875 466.140625 53.96875 413.671875 106.4375 Z M 403.925781 97.441406 " fill-opacity="1" fill-rule="nonzero"/></g><g clip-path="url(#765d69b36c)"><path fill="#5e17eb" d="M 364.949219 128.921875 L 367.949219 131.171875 L 382.191406 145.414062 L 387.4375 151.410156 C 388.1875 151.410156 388.1875 152.910156 388.1875 152.910156 L 185.804688 365.035156 C 185.804688 365.785156 185.804688 365.785156 185.804688 366.53125 L 185.804688 380.023438 C 185.804688 380.773438 185.804688 380.773438 185.058594 381.523438 C 184.308594 381.523438 184.308594 381.523438 183.558594 380.773438 L 176.8125 374.027344 L 173.0625 378.527344 L 177.5625 383.023438 L 169.316406 391.269531 L 151.328125 373.277344 L 41.140625 483.464844 L 37.394531 479.714844 L 12.660156 505.199219 C 12.660156 505.199219 11.910156 505.199219 11.910156 505.199219 L 0.667969 505.199219 C 0.667969 505.199219 -0.0820312 505.199219 -0.0820312 504.449219 C -0.0820312 504.449219 -0.0820312 503.703125 -0.0820312 503.703125 L 30.648438 472.96875 L 26.902344 469.222656 L 30.648438 465.472656 C 29.898438 464.726562 30.648438 461.726562 32.148438 459.476562 C 34.394531 457.230469 37.394531 456.480469 38.144531 457.980469 L 137.085938 359.039062 L 119.097656 341.046875 L 127.339844 332.804688 L 131.839844 337.300781 L 136.335938 333.550781 L 129.589844 326.804688 C 129.589844 326.804688 129.589844 326.058594 129.589844 325.308594 C 129.589844 325.308594 130.339844 324.558594 131.089844 324.558594 L 144.582031 325.308594 C 144.582031 325.308594 145.332031 324.558594 145.332031 324.558594 L 234.527344 239.859375 L 236.777344 237.609375 L 357.453125 122.925781 C 358.203125 122.175781 358.953125 122.175781 359.703125 122.925781 L 364.949219 128.921875 L 367.949219 131.171875 L 382.191406 145.414062 C 382.191406 145.414062 382.941406 146.164062 382.941406 146.164062 C 382.941406 146.164062 383.6875 146.164062 383.6875 145.414062 L 384.4375 145.414062 C 384.4375 144.664062 384.4375 143.914062 383.6875 143.914062 L 380.691406 140.917969 L 382.941406 139.417969 L 385.1875 141.667969 C 385.1875 141.667969 385.9375 141.667969 385.9375 142.414062 C 386.6875 142.414062 386.6875 142.414062 386.6875 141.667969 L 387.4375 140.917969 C 388.1875 140.917969 387.4375 140.167969 387.4375 139.417969 L 384.4375 137.167969 L 386.6875 134.921875 L 388.9375 137.167969 C 388.9375 137.917969 389.6875 137.917969 389.6875 137.917969 C 389.6875 137.917969 390.433594 137.917969 390.433594 137.917969 L 391.183594 136.417969 C 391.183594 136.417969 391.183594 135.667969 390.433594 135.667969 L 388.9375 133.421875 L 390.433594 131.171875 L 392.683594 133.421875 C 392.683594 133.421875 392.683594 133.421875 393.433594 133.421875 C 393.433594 134.171875 393.433594 133.421875 394.183594 133.421875 L 394.933594 132.671875 C 394.933594 131.921875 394.933594 131.921875 394.183594 131.171875 L 392.683594 129.671875 L 394.183594 127.425781 L 395.683594 128.921875 C 396.433594 129.671875 396.433594 129.671875 396.433594 129.671875 C 397.179688 129.671875 397.179688 129.671875 397.179688 129.671875 L 397.929688 128.175781 C 398.679688 128.175781 397.929688 127.425781 397.929688 126.675781 L 396.433594 125.175781 L 397.929688 123.675781 L 399.429688 125.175781 C 399.429688 125.175781 400.179688 125.175781 400.179688 125.175781 C 400.179688 125.175781 400.929688 125.175781 400.929688 125.175781 L 401.679688 124.425781 C 401.679688 123.675781 401.679688 123.675781 401.679688 122.925781 L 400.179688 121.429688 L 401.679688 119.929688 L 403.175781 120.679688 C 403.175781 121.429688 403.175781 121.429688 403.925781 121.429688 C 403.925781 121.429688 403.925781 121.429688 404.675781 121.429688 L 405.425781 119.929688 C 405.425781 119.929688 405.425781 119.179688 404.675781 118.429688 L 403.925781 117.679688 L 406.175781 116.179688 L 406.175781 116.929688 C 406.925781 116.929688 406.925781 116.929688 406.925781 116.929688 C 407.675781 116.929688 407.675781 116.929688 407.675781 116.929688 L 408.425781 116.179688 C 409.175781 115.429688 409.175781 114.683594 408.425781 114.683594 L 407.675781 113.933594 L 409.921875 112.433594 C 409.921875 112.433594 410.671875 113.183594 410.671875 113.183594 C 410.671875 113.183594 411.421875 113.183594 411.421875 112.433594 L 414.421875 108.6875 C 415.171875 108.6875 415.171875 107.9375 414.421875 107.1875 L 408.425781 101.941406 L 403.175781 95.941406 C 402.429688 95.941406 402.429688 95.941406 401.679688 95.941406 L 397.929688 98.941406 C 397.929688 99.691406 397.929688 99.691406 397.929688 99.691406 C 397.929688 100.441406 397.929688 100.441406 397.929688 100.441406 L 398.679688 101.191406 L 396.433594 102.6875 L 396.433594 101.941406 C 395.683594 101.941406 394.933594 101.941406 394.933594 101.941406 L 393.433594 102.6875 C 393.433594 102.6875 393.433594 103.4375 393.433594 103.4375 C 393.433594 103.4375 393.433594 104.1875 394.183594 104.1875 L 394.933594 104.9375 L 392.683594 106.4375 L 391.933594 105.6875 C 391.183594 105.6875 391.183594 104.9375 390.433594 105.6875 L 389.6875 106.4375 C 389.6875 106.4375 389.6875 106.4375 389.6875 107.1875 C 389.6875 107.1875 389.6875 107.1875 389.6875 107.9375 L 390.433594 108.6875 L 388.9375 110.183594 L 387.4375 109.433594 C 387.4375 108.6875 386.6875 108.6875 386.6875 108.6875 L 385.1875 110.183594 C 385.1875 110.933594 385.1875 110.933594 385.9375 110.933594 L 386.6875 112.433594 L 385.1875 114.683594 L 383.6875 113.183594 C 382.941406 112.433594 382.191406 112.433594 382.191406 112.433594 L 381.441406 113.183594 C 381.441406 113.183594 380.691406 113.933594 380.691406 113.933594 C 381.441406 113.933594 381.441406 114.683594 381.441406 114.683594 L 382.941406 116.179688 L 381.441406 118.429688 L 379.191406 116.179688 C 379.191406 116.179688 378.441406 115.429688 377.691406 116.179688 L 376.941406 116.929688 C 376.941406 116.929688 376.941406 116.929688 376.941406 117.679688 C 376.941406 117.679688 376.941406 118.429688 377.691406 118.429688 L 379.191406 119.929688 L 377.691406 122.175781 L 375.445312 119.929688 C 374.695312 119.179688 373.945312 119.179688 373.945312 119.929688 L 373.195312 120.679688 C 372.445312 120.679688 372.445312 120.679688 372.445312 120.679688 C 372.445312 121.429688 373.195312 121.429688 373.195312 122.175781 L 375.445312 124.425781 L 373.945312 125.925781 L 370.945312 123.675781 C 370.945312 122.925781 370.199219 122.925781 369.449219 122.925781 L 368.699219 123.675781 C 368.699219 123.675781 368.699219 124.425781 368.699219 124.425781 C 368.699219 125.175781 368.699219 125.175781 368.699219 125.175781 L 371.695312 128.175781 L 369.449219 129.671875 L 367.199219 126.675781 C 366.449219 126.675781 365.699219 126.675781 365.699219 126.675781 L 364.949219 127.425781 C 364.949219 128.175781 364.949219 128.175781 364.949219 128.921875 Z M 364.949219 128.921875 " fill-opacity="1" fill-rule="evenodd"/></g><g clip-path="url(#c37e105f96)"><g fill="#5e17eb" fill-opacity="1"><g transform="translate(-0.0833234, 516.443983)"><g><path d="M 1.453125 -0.390625 C 1.773438 -0.390625 2.003906 -0.550781 2.140625 -0.875 L 2.609375 -0.703125 C 2.503906 -0.453125 2.351562 -0.265625 2.15625 -0.140625 C 1.957031 -0.0234375 1.722656 0.03125 1.453125 0.03125 C 1.035156 0.03125 0.710938 -0.0820312 0.484375 -0.3125 C 0.265625 -0.550781 0.15625 -0.878906 0.15625 -1.296875 C 0.15625 -1.722656 0.265625 -2.050781 0.484375 -2.28125 C 0.703125 -2.507812 1.019531 -2.625 1.4375 -2.625 C 1.738281 -2.625 1.984375 -2.5625 2.171875 -2.4375 C 2.359375 -2.3125 2.492188 -2.132812 2.578125 -1.90625 L 2.09375 -1.765625 C 2.050781 -1.898438 1.972656 -2.003906 1.859375 -2.078125 C 1.742188 -2.148438 1.601562 -2.1875 1.4375 -2.1875 C 1.195312 -2.1875 1.015625 -2.109375 0.890625 -1.953125 C 0.765625 -1.804688 0.703125 -1.585938 0.703125 -1.296875 C 0.703125 -1.003906 0.765625 -0.78125 0.890625 -0.625 C 1.023438 -0.46875 1.210938 -0.390625 1.453125 -0.390625 Z M 1.453125 -0.390625 "/></g></g><g transform="translate(2.623203, 516.443983)"><g><path d="M 0.265625 0 L 0.265625 -1.515625 C 0.265625 -1.617188 0.257812 -1.707031 0.25 -1.78125 C 0.25 -1.851562 0.25 -1.921875 0.25 -1.984375 L 0.734375 -1.984375 C 0.742188 -1.960938 0.75 -1.894531 0.75 -1.78125 C 0.757812 -1.664062 0.765625 -1.59375 0.765625 -1.5625 C 0.816406 -1.695312 0.863281 -1.789062 0.90625 -1.84375 C 0.945312 -1.90625 0.992188 -1.945312 1.046875 -1.96875 C 1.097656 -2 1.164062 -2.015625 1.25 -2.015625 C 1.3125 -2.015625 1.363281 -2.007812 1.40625 -2 L 1.40625 -1.5625 C 1.320312 -1.582031 1.25 -1.59375 1.1875 -1.59375 C 1.050781 -1.59375 0.945312 -1.539062 0.875 -1.4375 C 0.8125 -1.332031 0.78125 -1.175781 0.78125 -0.96875 L 0.78125 0 Z M 0.265625 0 "/></g></g><g transform="translate(4.081689, 516.443983)"><g><path d="M 1.078125 0.03125 C 0.773438 0.03125 0.539062 -0.0546875 0.375 -0.234375 C 0.21875 -0.410156 0.140625 -0.664062 0.140625 -1 C 0.140625 -1.320312 0.222656 -1.570312 0.390625 -1.75 C 0.554688 -1.925781 0.785156 -2.015625 1.078125 -2.015625 C 1.359375 -2.015625 1.570312 -1.921875 1.71875 -1.734375 C 1.875 -1.546875 1.953125 -1.269531 1.953125 -0.90625 L 1.953125 -0.890625 L 0.6875 -0.890625 C 0.6875 -0.703125 0.722656 -0.554688 0.796875 -0.453125 C 0.867188 -0.359375 0.96875 -0.3125 1.09375 -0.3125 C 1.28125 -0.3125 1.394531 -0.390625 1.4375 -0.546875 L 1.921875 -0.5 C 1.785156 -0.144531 1.503906 0.03125 1.078125 0.03125 Z M 1.078125 -1.6875 C 0.953125 -1.6875 0.859375 -1.644531 0.796875 -1.5625 C 0.734375 -1.476562 0.695312 -1.363281 0.6875 -1.21875 L 1.453125 -1.21875 C 1.441406 -1.375 1.40625 -1.488281 1.34375 -1.5625 C 1.28125 -1.644531 1.191406 -1.6875 1.078125 -1.6875 Z M 1.078125 -1.6875 "/></g></g><g transform="translate(6.166025, 516.443983)"><g><path d="M 0.71875 0.03125 C 0.53125 0.03125 0.378906 -0.0195312 0.265625 -0.125 C 0.160156 -0.226562 0.109375 -0.375 0.109375 -0.5625 C 0.109375 -0.769531 0.175781 -0.925781 0.3125 -1.03125 C 0.445312 -1.132812 0.640625 -1.1875 0.890625 -1.1875 L 1.3125 -1.203125 L 1.3125 -1.296875 C 1.3125 -1.429688 1.289062 -1.53125 1.25 -1.59375 C 1.207031 -1.65625 1.132812 -1.6875 1.03125 -1.6875 C 0.9375 -1.6875 0.863281 -1.660156 0.8125 -1.609375 C 0.769531 -1.566406 0.742188 -1.5 0.734375 -1.40625 L 0.203125 -1.4375 C 0.234375 -1.625 0.316406 -1.765625 0.453125 -1.859375 C 0.597656 -1.960938 0.796875 -2.015625 1.046875 -2.015625 C 1.296875 -2.015625 1.488281 -1.953125 1.625 -1.828125 C 1.757812 -1.703125 1.828125 -1.53125 1.828125 -1.3125 L 1.828125 -0.59375 C 1.828125 -0.476562 1.835938 -0.398438 1.859375 -0.359375 C 1.890625 -0.316406 1.9375 -0.296875 2 -0.296875 C 2.03125 -0.296875 2.066406 -0.296875 2.109375 -0.296875 L 2.109375 -0.03125 C 2.078125 -0.0195312 2.046875 -0.0078125 2.015625 0 C 1.992188 0 1.972656 0 1.953125 0 C 1.929688 0.0078125 1.90625 0.015625 1.875 0.015625 C 1.84375 0.015625 1.8125 0.015625 1.78125 0.015625 C 1.644531 0.015625 1.546875 -0.015625 1.484375 -0.078125 C 1.429688 -0.140625 1.394531 -0.234375 1.375 -0.359375 C 1.226562 -0.0976562 1.007812 0.03125 0.71875 0.03125 Z M 1.3125 -0.921875 L 1.0625 -0.90625 C 0.9375 -0.90625 0.847656 -0.894531 0.796875 -0.875 C 0.742188 -0.851562 0.703125 -0.816406 0.671875 -0.765625 C 0.648438 -0.722656 0.640625 -0.664062 0.640625 -0.59375 C 0.640625 -0.5 0.660156 -0.429688 0.703125 -0.390625 C 0.753906 -0.347656 0.816406 -0.328125 0.890625 -0.328125 C 0.960938 -0.328125 1.03125 -0.347656 1.09375 -0.390625 C 1.164062 -0.429688 1.21875 -0.488281 1.25 -0.5625 C 1.289062 -0.644531 1.3125 -0.726562 1.3125 -0.8125 Z M 1.3125 -0.921875 "/></g></g><g transform="translate(8.250362, 516.443983)"><g><path d="M 0.765625 0.03125 C 0.617188 0.03125 0.503906 -0.0078125 0.421875 -0.09375 C 0.335938 -0.175781 0.296875 -0.300781 0.296875 -0.46875 L 0.296875 -1.640625 L 0.046875 -1.640625 L 0.046875 -1.984375 L 0.328125 -1.984375 L 0.484375 -2.453125 L 0.8125 -2.453125 L 0.8125 -1.984375 L 1.1875 -1.984375 L 1.1875 -1.640625 L 0.8125 -1.640625 L 0.8125 -0.609375 C 0.8125 -0.503906 0.828125 -0.429688 0.859375 -0.390625 C 0.898438 -0.347656 0.957031 -0.328125 1.03125 -0.328125 C 1.070312 -0.328125 1.128906 -0.332031 1.203125 -0.34375 L 1.203125 -0.03125 C 1.078125 0.0078125 0.929688 0.03125 0.765625 0.03125 Z M 0.765625 0.03125 "/></g></g><g transform="translate(9.498401, 516.443983)"><g><path d="M 1.078125 0.03125 C 0.773438 0.03125 0.539062 -0.0546875 0.375 -0.234375 C 0.21875 -0.410156 0.140625 -0.664062 0.140625 -1 C 0.140625 -1.320312 0.222656 -1.570312 0.390625 -1.75 C 0.554688 -1.925781 0.785156 -2.015625 1.078125 -2.015625 C 1.359375 -2.015625 1.570312 -1.921875 1.71875 -1.734375 C 1.875 -1.546875 1.953125 -1.269531 1.953125 -0.90625 L 1.953125 -0.890625 L 0.6875 -0.890625 C 0.6875 -0.703125 0.722656 -0.554688 0.796875 -0.453125 C 0.867188 -0.359375 0.96875 -0.3125 1.09375 -0.3125 C 1.28125 -0.3125 1.394531 -0.390625 1.4375 -0.546875 L 1.921875 -0.5 C 1.785156 -0.144531 1.503906 0.03125 1.078125 0.03125 Z M 1.078125 -1.6875 C 0.953125 -1.6875 0.859375 -1.644531 0.796875 -1.5625 C 0.734375 -1.476562 0.695312 -1.363281 0.6875 -1.21875 L 1.453125 -1.21875 C 1.441406 -1.375 1.40625 -1.488281 1.34375 -1.5625 C 1.28125 -1.644531 1.191406 -1.6875 1.078125 -1.6875 Z M 1.078125 -1.6875 "/></g></g><g transform="translate(11.582737, 516.443983)"><g><path d="M 1.546875 0 C 1.535156 -0.0195312 1.523438 -0.0664062 1.515625 -0.140625 C 1.515625 -0.210938 1.515625 -0.273438 1.515625 -0.328125 C 1.398438 -0.0859375 1.1875 0.03125 0.875 0.03125 C 0.644531 0.03125 0.46875 -0.0546875 0.34375 -0.234375 C 0.21875 -0.410156 0.15625 -0.660156 0.15625 -0.984375 C 0.15625 -1.316406 0.21875 -1.570312 0.34375 -1.75 C 0.476562 -1.925781 0.671875 -2.015625 0.921875 -2.015625 C 1.054688 -2.015625 1.175781 -1.984375 1.28125 -1.921875 C 1.382812 -1.867188 1.460938 -1.785156 1.515625 -1.671875 L 1.515625 -2.71875 L 2.03125 -2.71875 L 2.03125 -0.4375 C 2.03125 -0.3125 2.035156 -0.164062 2.046875 0 Z M 1.515625 -1 C 1.515625 -1.21875 1.476562 -1.382812 1.40625 -1.5 C 1.34375 -1.613281 1.238281 -1.671875 1.09375 -1.671875 C 0.957031 -1.671875 0.851562 -1.613281 0.78125 -1.5 C 0.71875 -1.382812 0.6875 -1.210938 0.6875 -0.984375 C 0.6875 -0.535156 0.820312 -0.3125 1.09375 -0.3125 C 1.226562 -0.3125 1.332031 -0.367188 1.40625 -0.484375 C 1.476562 -0.609375 1.515625 -0.78125 1.515625 -1 Z M 1.515625 -1 "/></g></g><g transform="translate(13.87203, 516.443983)"><g/></g><g transform="translate(14.913283, 516.443983)"><g><path d="M 2.140625 -1 C 2.140625 -0.664062 2.070312 -0.410156 1.9375 -0.234375 C 1.8125 -0.0546875 1.625 0.03125 1.375 0.03125 C 1.238281 0.03125 1.117188 0.00390625 1.015625 -0.046875 C 0.910156 -0.109375 0.832031 -0.195312 0.78125 -0.3125 L 0.765625 -0.3125 C 0.765625 -0.269531 0.757812 -0.210938 0.75 -0.140625 C 0.75 -0.0664062 0.75 -0.0195312 0.75 0 L 0.25 0 C 0.257812 -0.113281 0.265625 -0.265625 0.265625 -0.453125 L 0.265625 -2.71875 L 0.78125 -2.71875 L 0.78125 -1.953125 L 0.765625 -1.640625 L 0.78125 -1.640625 C 0.894531 -1.890625 1.101562 -2.015625 1.40625 -2.015625 C 1.644531 -2.015625 1.828125 -1.925781 1.953125 -1.75 C 2.078125 -1.570312 2.140625 -1.320312 2.140625 -1 Z M 1.59375 -1 C 1.59375 -1.21875 1.5625 -1.378906 1.5 -1.484375 C 1.4375 -1.597656 1.335938 -1.65625 1.203125 -1.65625 C 1.054688 -1.65625 0.945312 -1.597656 0.875 -1.484375 C 0.800781 -1.367188 0.765625 -1.203125 0.765625 -0.984375 C 0.765625 -0.773438 0.800781 -0.609375 0.875 -0.484375 C 0.945312 -0.367188 1.050781 -0.3125 1.1875 -0.3125 C 1.457031 -0.3125 1.59375 -0.539062 1.59375 -1 Z M 1.59375 -1 "/></g></g><g transform="translate(17.202576, 516.443983)"><g><path d="M 0.515625 0.78125 C 0.390625 0.78125 0.28125 0.769531 0.1875 0.75 L 0.1875 0.390625 C 0.257812 0.398438 0.320312 0.40625 0.375 0.40625 C 0.445312 0.40625 0.503906 0.390625 0.546875 0.359375 C 0.597656 0.335938 0.640625 0.300781 0.671875 0.25 C 0.710938 0.195312 0.757812 0.109375 0.8125 -0.015625 L 0.03125 -1.984375 L 0.578125 -1.984375 L 0.890625 -1.046875 C 0.929688 -0.921875 0.988281 -0.71875 1.0625 -0.4375 L 1.109375 -0.609375 L 1.234375 -1.046875 L 1.53125 -1.984375 L 2.0625 -1.984375 L 1.28125 0.109375 C 1.175781 0.359375 1.066406 0.53125 0.953125 0.625 C 0.835938 0.726562 0.691406 0.78125 0.515625 0.78125 Z M 0.515625 0.78125 "/></g></g><g transform="translate(19.286913, 516.443983)"><g/></g><g transform="translate(20.328166, 516.443983)"><g><path d="M 1.453125 -0.390625 C 1.773438 -0.390625 2.003906 -0.550781 2.140625 -0.875 L 2.609375 -0.703125 C 2.503906 -0.453125 2.351562 -0.265625 2.15625 -0.140625 C 1.957031 -0.0234375 1.722656 0.03125 1.453125 0.03125 C 1.035156 0.03125 0.710938 -0.0820312 0.484375 -0.3125 C 0.265625 -0.550781 0.15625 -0.878906 0.15625 -1.296875 C 0.15625 -1.722656 0.265625 -2.050781 0.484375 -2.28125 C 0.703125 -2.507812 1.019531 -2.625 1.4375 -2.625 C 1.738281 -2.625 1.984375 -2.5625 2.171875 -2.4375 C 2.359375 -2.3125 2.492188 -2.132812 2.578125 -1.90625 L 2.09375 -1.765625 C 2.050781 -1.898438 1.972656 -2.003906 1.859375 -2.078125 C 1.742188 -2.148438 1.601562 -2.1875 1.4375 -2.1875 C 1.195312 -2.1875 1.015625 -2.109375 0.890625 -1.953125 C 0.765625 -1.804688 0.703125 -1.585938 0.703125 -1.296875 C 0.703125 -1.003906 0.765625 -0.78125 0.890625 -0.625 C 1.023438 -0.46875 1.210938 -0.390625 1.453125 -0.390625 Z M 1.453125 -0.390625 "/></g></g><g transform="translate(23.034692, 516.443983)"><g><path d="M 0.765625 -1.578125 C 0.835938 -1.734375 0.925781 -1.84375 1.03125 -1.90625 C 1.132812 -1.976562 1.257812 -2.015625 1.40625 -2.015625 C 1.613281 -2.015625 1.773438 -1.945312 1.890625 -1.8125 C 2.003906 -1.6875 2.0625 -1.5 2.0625 -1.25 L 2.0625 0 L 1.546875 0 L 1.546875 -1.109375 C 1.546875 -1.453125 1.425781 -1.625 1.1875 -1.625 C 1.0625 -1.625 0.960938 -1.570312 0.890625 -1.46875 C 0.816406 -1.363281 0.78125 -1.226562 0.78125 -1.0625 L 0.78125 0 L 0.265625 0 L 0.265625 -2.71875 L 0.78125 -2.71875 L 0.78125 -1.96875 C 0.78125 -1.84375 0.773438 -1.710938 0.765625 -1.578125 Z M 0.765625 -1.578125 "/></g></g><g transform="translate(25.323985, 516.443983)"><g><path d="M 0.265625 0 L 0.265625 -1.515625 C 0.265625 -1.617188 0.257812 -1.707031 0.25 -1.78125 C 0.25 -1.851562 0.25 -1.921875 0.25 -1.984375 L 0.734375 -1.984375 C 0.742188 -1.960938 0.75 -1.894531 0.75 -1.78125 C 0.757812 -1.664062 0.765625 -1.59375 0.765625 -1.5625 C 0.816406 -1.695312 0.863281 -1.789062 0.90625 -1.84375 C 0.945312 -1.90625 0.992188 -1.945312 1.046875 -1.96875 C 1.097656 -2 1.164062 -2.015625 1.25 -2.015625 C 1.3125 -2.015625 1.363281 -2.007812 1.40625 -2 L 1.40625 -1.5625 C 1.320312 -1.582031 1.25 -1.59375 1.1875 -1.59375 C 1.050781 -1.59375 0.945312 -1.539062 0.875 -1.4375 C 0.8125 -1.332031 0.78125 -1.175781 0.78125 -0.96875 L 0.78125 0 Z M 0.265625 0 "/></g></g><g transform="translate(26.782471, 516.443983)"><g><path d="M 0.265625 -2.34375 L 0.265625 -2.71875 L 0.78125 -2.71875 L 0.78125 -2.34375 Z M 0.265625 0 L 0.265625 -1.984375 L 0.78125 -1.984375 L 0.78125 0 Z M 0.265625 0 "/></g></g><g transform="translate(27.823724, 516.443983)"><g><path d="M 1.9375 -0.578125 C 1.9375 -0.390625 1.859375 -0.238281 1.703125 -0.125 C 1.546875 -0.0195312 1.328125 0.03125 1.046875 0.03125 C 0.773438 0.03125 0.566406 -0.0078125 0.421875 -0.09375 C 0.273438 -0.175781 0.175781 -0.3125 0.125 -0.5 L 0.578125 -0.5625 C 0.609375 -0.46875 0.65625 -0.398438 0.71875 -0.359375 C 0.78125 -0.316406 0.890625 -0.296875 1.046875 -0.296875 C 1.191406 -0.296875 1.296875 -0.3125 1.359375 -0.34375 C 1.421875 -0.382812 1.453125 -0.445312 1.453125 -0.53125 C 1.453125 -0.59375 1.425781 -0.640625 1.375 -0.671875 C 1.320312 -0.710938 1.234375 -0.75 1.109375 -0.78125 C 0.816406 -0.832031 0.617188 -0.882812 0.515625 -0.9375 C 0.421875 -0.988281 0.34375 -1.050781 0.28125 -1.125 C 0.226562 -1.207031 0.203125 -1.304688 0.203125 -1.421875 C 0.203125 -1.609375 0.273438 -1.753906 0.421875 -1.859375 C 0.566406 -1.960938 0.773438 -2.015625 1.046875 -2.015625 C 1.285156 -2.015625 1.472656 -1.96875 1.609375 -1.875 C 1.753906 -1.789062 1.847656 -1.660156 1.890625 -1.484375 L 1.4375 -1.4375 C 1.414062 -1.519531 1.375 -1.578125 1.3125 -1.609375 C 1.257812 -1.648438 1.171875 -1.671875 1.046875 -1.671875 C 0.921875 -1.671875 0.828125 -1.65625 0.765625 -1.625 C 0.710938 -1.59375 0.6875 -1.539062 0.6875 -1.46875 C 0.6875 -1.414062 0.707031 -1.367188 0.75 -1.328125 C 0.800781 -1.296875 0.878906 -1.269531 0.984375 -1.25 C 1.140625 -1.21875 1.273438 -1.1875 1.390625 -1.15625 C 1.515625 -1.125 1.613281 -1.082031 1.6875 -1.03125 C 1.757812 -0.988281 1.816406 -0.929688 1.859375 -0.859375 C 1.910156 -0.785156 1.9375 -0.691406 1.9375 -0.578125 Z M 1.9375 -0.578125 "/></g></g><g transform="translate(29.90806, 516.443983)"><g/></g><g transform="translate(30.949314, 516.443983)"><g><path d="M 2.375 -1.765625 C 2.375 -1.597656 2.332031 -1.445312 2.25 -1.3125 C 2.175781 -1.1875 2.066406 -1.085938 1.921875 -1.015625 C 1.785156 -0.941406 1.625 -0.90625 1.4375 -0.90625 L 0.796875 -0.90625 L 0.796875 0 L 0.25 0 L 0.25 -2.578125 L 1.40625 -2.578125 C 1.71875 -2.578125 1.957031 -2.503906 2.125 -2.359375 C 2.289062 -2.222656 2.375 -2.023438 2.375 -1.765625 Z M 1.828125 -1.75 C 1.828125 -2.019531 1.664062 -2.15625 1.34375 -2.15625 L 0.796875 -2.15625 L 0.796875 -1.328125 L 1.359375 -1.328125 C 1.515625 -1.328125 1.628906 -1.363281 1.703125 -1.4375 C 1.785156 -1.507812 1.828125 -1.613281 1.828125 -1.75 Z M 1.828125 -1.75 "/></g></g><g transform="translate(33.449053, 516.443983)"><g><path d="M 0.515625 0.78125 C 0.390625 0.78125 0.28125 0.769531 0.1875 0.75 L 0.1875 0.390625 C 0.257812 0.398438 0.320312 0.40625 0.375 0.40625 C 0.445312 0.40625 0.503906 0.390625 0.546875 0.359375 C 0.597656 0.335938 0.640625 0.300781 0.671875 0.25 C 0.710938 0.195312 0.757812 0.109375 0.8125 -0.015625 L 0.03125 -1.984375 L 0.578125 -1.984375 L 0.890625 -1.046875 C 0.929688 -0.921875 0.988281 -0.71875 1.0625 -0.4375 L 1.109375 -0.609375 L 1.234375 -1.046875 L 1.53125 -1.984375 L 2.0625 -1.984375 L 1.28125 0.109375 C 1.175781 0.359375 1.066406 0.53125 0.953125 0.625 C 0.835938 0.726562 0.691406 0.78125 0.515625 0.78125 Z M 0.515625 0.78125 "/></g></g><g transform="translate(35.533389, 516.443983)"><g><path d="M 2.140625 -1 C 2.140625 -0.664062 2.070312 -0.410156 1.9375 -0.234375 C 1.800781 -0.0546875 1.613281 0.03125 1.375 0.03125 C 1.238281 0.03125 1.117188 0.00390625 1.015625 -0.046875 C 0.910156 -0.109375 0.832031 -0.195312 0.78125 -0.3125 L 0.765625 -0.3125 C 0.773438 -0.28125 0.78125 -0.171875 0.78125 0.015625 L 0.78125 0.78125 L 0.265625 0.78125 L 0.265625 -1.53125 C 0.265625 -1.71875 0.257812 -1.867188 0.25 -1.984375 L 0.75 -1.984375 C 0.75 -1.960938 0.75 -1.914062 0.75 -1.84375 C 0.757812 -1.78125 0.765625 -1.71875 0.765625 -1.65625 L 0.78125 -1.65625 C 0.894531 -1.894531 1.101562 -2.015625 1.40625 -2.015625 C 1.632812 -2.015625 1.8125 -1.925781 1.9375 -1.75 C 2.070312 -1.570312 2.140625 -1.320312 2.140625 -1 Z M 1.59375 -1 C 1.59375 -1.445312 1.457031 -1.671875 1.1875 -1.671875 C 1.050781 -1.671875 0.945312 -1.609375 0.875 -1.484375 C 0.800781 -1.367188 0.765625 -1.203125 0.765625 -0.984375 C 0.765625 -0.773438 0.800781 -0.609375 0.875 -0.484375 C 0.945312 -0.367188 1.050781 -0.3125 1.1875 -0.3125 C 1.457031 -0.3125 1.59375 -0.539062 1.59375 -1 Z M 1.59375 -1 "/></g></g><g transform="translate(37.822682, 516.443983)"><g><path d="M 1.078125 0.03125 C 0.773438 0.03125 0.539062 -0.0546875 0.375 -0.234375 C 0.21875 -0.410156 0.140625 -0.664062 0.140625 -1 C 0.140625 -1.320312 0.222656 -1.570312 0.390625 -1.75 C 0.554688 -1.925781 0.785156 -2.015625 1.078125 -2.015625 C 1.359375 -2.015625 1.570312 -1.921875 1.71875 -1.734375 C 1.875 -1.546875 1.953125 -1.269531 1.953125 -0.90625 L 1.953125 -0.890625 L 0.6875 -0.890625 C 0.6875 -0.703125 0.722656 -0.554688 0.796875 -0.453125 C 0.867188 -0.359375 0.96875 -0.3125 1.09375 -0.3125 C 1.28125 -0.3125 1.394531 -0.390625 1.4375 -0.546875 L 1.921875 -0.5 C 1.785156 -0.144531 1.503906 0.03125 1.078125 0.03125 Z M 1.078125 -1.6875 C 0.953125 -1.6875 0.859375 -1.644531 0.796875 -1.5625 C 0.734375 -1.476562 0.695312 -1.363281 0.6875 -1.21875 L 1.453125 -1.21875 C 1.441406 -1.375 1.40625 -1.488281 1.34375 -1.5625 C 1.28125 -1.644531 1.191406 -1.6875 1.078125 -1.6875 Z M 1.078125 -1.6875 "/></g></g><g transform="translate(39.907018, 516.443983)"><g><path d="M 0.265625 0 L 0.265625 -1.515625 C 0.265625 -1.617188 0.257812 -1.707031 0.25 -1.78125 C 0.25 -1.851562 0.25 -1.921875 0.25 -1.984375 L 0.734375 -1.984375 C 0.742188 -1.960938 0.75 -1.894531 0.75 -1.78125 C 0.757812 -1.664062 0.765625 -1.59375 0.765625 -1.5625 C 0.816406 -1.695312 0.863281 -1.789062 0.90625 -1.84375 C 0.945312 -1.90625 0.992188 -1.945312 1.046875 -1.96875 C 1.097656 -2 1.164062 -2.015625 1.25 -2.015625 C 1.3125 -2.015625 1.363281 -2.007812 1.40625 -2 L 1.40625 -1.5625 C 1.320312 -1.582031 1.25 -1.59375 1.1875 -1.59375 C 1.050781 -1.59375 0.945312 -1.539062 0.875 -1.4375 C 0.8125 -1.332031 0.78125 -1.175781 0.78125 -0.96875 L 0.78125 0 Z M 0.265625 0 "/></g></g></g></g><g clip-path="url(#fa607f2dd1)"><g fill="#5e17eb" fill-opacity="1"><g transform="translate(-0.0833234, 520.191763)"><g><path d="M 0.859375 -1.640625 L 0.859375 0 L 0.359375 0 L 0.359375 -1.640625 L 0.0625 -1.640625 L 0.0625 -1.984375 L 0.359375 -1.984375 L 0.359375 -2.1875 C 0.359375 -2.363281 0.40625 -2.492188 0.5 -2.578125 C 0.59375 -2.671875 0.738281 -2.71875 0.9375 -2.71875 C 1.03125 -2.71875 1.132812 -2.707031 1.25 -2.6875 L 1.25 -2.359375 C 1.207031 -2.367188 1.160156 -2.375 1.109375 -2.375 C 1.015625 -2.375 0.945312 -2.351562 0.90625 -2.3125 C 0.875 -2.28125 0.859375 -2.222656 0.859375 -2.140625 L 0.859375 -1.984375 L 1.25 -1.984375 L 1.25 -1.640625 Z M 0.859375 -1.640625 "/></g></g><g transform="translate(1.164716, 520.191763)"><g><path d="M 0.265625 0 L 0.265625 -1.515625 C 0.265625 -1.617188 0.257812 -1.707031 0.25 -1.78125 C 0.25 -1.851562 0.25 -1.921875 0.25 -1.984375 L 0.734375 -1.984375 C 0.742188 -1.960938 0.75 -1.894531 0.75 -1.78125 C 0.757812 -1.664062 0.765625 -1.59375 0.765625 -1.5625 C 0.816406 -1.695312 0.863281 -1.789062 0.90625 -1.84375 C 0.945312 -1.90625 0.992188 -1.945312 1.046875 -1.96875 C 1.097656 -2 1.164062 -2.015625 1.25 -2.015625 C 1.3125 -2.015625 1.363281 -2.007812 1.40625 -2 L 1.40625 -1.5625 C 1.320312 -1.582031 1.25 -1.59375 1.1875 -1.59375 C 1.050781 -1.59375 0.945312 -1.539062 0.875 -1.4375 C 0.8125 -1.332031 0.78125 -1.175781 0.78125 -0.96875 L 0.78125 0 Z M 0.265625 0 "/></g></g><g transform="translate(2.623203, 520.191763)"><g><path d="M 2.140625 -1 C 2.140625 -0.675781 2.050781 -0.421875 1.875 -0.234375 C 1.695312 -0.0546875 1.453125 0.03125 1.140625 0.03125 C 0.828125 0.03125 0.582031 -0.0546875 0.40625 -0.234375 C 0.226562 -0.421875 0.140625 -0.675781 0.140625 -1 C 0.140625 -1.3125 0.226562 -1.554688 0.40625 -1.734375 C 0.582031 -1.921875 0.828125 -2.015625 1.140625 -2.015625 C 1.472656 -2.015625 1.722656 -1.925781 1.890625 -1.75 C 2.054688 -1.570312 2.140625 -1.320312 2.140625 -1 Z M 1.609375 -1 C 1.609375 -1.226562 1.566406 -1.394531 1.484375 -1.5 C 1.410156 -1.613281 1.300781 -1.671875 1.15625 -1.671875 C 0.84375 -1.671875 0.6875 -1.445312 0.6875 -1 C 0.6875 -0.769531 0.722656 -0.597656 0.796875 -0.484375 C 0.878906 -0.367188 0.988281 -0.3125 1.125 -0.3125 C 1.445312 -0.3125 1.609375 -0.539062 1.609375 -1 Z M 1.609375 -1 "/></g></g><g transform="translate(4.912496, 520.191763)"><g><path d="M 1.421875 0 L 1.421875 -1.109375 C 1.421875 -1.460938 1.320312 -1.640625 1.125 -1.640625 C 1.019531 -1.640625 0.9375 -1.582031 0.875 -1.46875 C 0.8125 -1.363281 0.78125 -1.226562 0.78125 -1.0625 L 0.78125 0 L 0.265625 0 L 0.265625 -1.53125 C 0.265625 -1.644531 0.257812 -1.734375 0.25 -1.796875 C 0.25 -1.867188 0.25 -1.929688 0.25 -1.984375 L 0.734375 -1.984375 C 0.742188 -1.960938 0.75 -1.898438 0.75 -1.796875 C 0.757812 -1.691406 0.765625 -1.625 0.765625 -1.59375 C 0.828125 -1.738281 0.90625 -1.84375 1 -1.90625 C 1.09375 -1.976562 1.207031 -2.015625 1.34375 -2.015625 C 1.644531 -2.015625 1.828125 -1.875 1.890625 -1.59375 L 1.90625 -1.59375 C 1.976562 -1.738281 2.0625 -1.84375 2.15625 -1.90625 C 2.25 -1.976562 2.367188 -2.015625 2.515625 -2.015625 C 2.703125 -2.015625 2.847656 -1.945312 2.953125 -1.8125 C 3.054688 -1.6875 3.109375 -1.503906 3.109375 -1.265625 L 3.109375 0 L 2.59375 0 L 2.59375 -1.109375 C 2.59375 -1.460938 2.492188 -1.640625 2.296875 -1.640625 C 2.191406 -1.640625 2.109375 -1.585938 2.046875 -1.484375 C 1.984375 -1.390625 1.945312 -1.253906 1.9375 -1.078125 L 1.9375 0 Z M 1.421875 0 "/></g></g><g transform="translate(8.244872, 520.191763)"><g/></g><g transform="translate(9.286125, 520.191763)"><g><path d="M 0.765625 0.03125 C 0.617188 0.03125 0.503906 -0.0078125 0.421875 -0.09375 C 0.335938 -0.175781 0.296875 -0.300781 0.296875 -0.46875 L 0.296875 -1.640625 L 0.046875 -1.640625 L 0.046875 -1.984375 L 0.328125 -1.984375 L 0.484375 -2.453125 L 0.8125 -2.453125 L 0.8125 -1.984375 L 1.1875 -1.984375 L 1.1875 -1.640625 L 0.8125 -1.640625 L 0.8125 -0.609375 C 0.8125 -0.503906 0.828125 -0.429688 0.859375 -0.390625 C 0.898438 -0.347656 0.957031 -0.328125 1.03125 -0.328125 C 1.070312 -0.328125 1.128906 -0.332031 1.203125 -0.34375 L 1.203125 -0.03125 C 1.078125 0.0078125 0.929688 0.03125 0.765625 0.03125 Z M 0.765625 0.03125 "/></g></g><g transform="translate(10.534164, 520.191763)"><g><path d="M 0.765625 -1.578125 C 0.835938 -1.734375 0.925781 -1.84375 1.03125 -1.90625 C 1.132812 -1.976562 1.257812 -2.015625 1.40625 -2.015625 C 1.613281 -2.015625 1.773438 -1.945312 1.890625 -1.8125 C 2.003906 -1.6875 2.0625 -1.5 2.0625 -1.25 L 2.0625 0 L 1.546875 0 L 1.546875 -1.109375 C 1.546875 -1.453125 1.425781 -1.625 1.1875 -1.625 C 1.0625 -1.625 0.960938 -1.570312 0.890625 -1.46875 C 0.816406 -1.363281 0.78125 -1.226562 0.78125 -1.0625 L 0.78125 0 L 0.265625 0 L 0.265625 -2.71875 L 0.78125 -2.71875 L 0.78125 -1.96875 C 0.78125 -1.84375 0.773438 -1.710938 0.765625 -1.578125 Z M 0.765625 -1.578125 "/></g></g><g transform="translate(12.823457, 520.191763)"><g><path d="M 1.078125 0.03125 C 0.773438 0.03125 0.539062 -0.0546875 0.375 -0.234375 C 0.21875 -0.410156 0.140625 -0.664062 0.140625 -1 C 0.140625 -1.320312 0.222656 -1.570312 0.390625 -1.75 C 0.554688 -1.925781 0.785156 -2.015625 1.078125 -2.015625 C 1.359375 -2.015625 1.570312 -1.921875 1.71875 -1.734375 C 1.875 -1.546875 1.953125 -1.269531 1.953125 -0.90625 L 1.953125 -0.890625 L 0.6875 -0.890625 C 0.6875 -0.703125 0.722656 -0.554688 0.796875 -0.453125 C 0.867188 -0.359375 0.96875 -0.3125 1.09375 -0.3125 C 1.28125 -0.3125 1.394531 -0.390625 1.4375 -0.546875 L 1.921875 -0.5 C 1.785156 -0.144531 1.503906 0.03125 1.078125 0.03125 Z M 1.078125 -1.6875 C 0.953125 -1.6875 0.859375 -1.644531 0.796875 -1.5625 C 0.734375 -1.476562 0.695312 -1.363281 0.6875 -1.21875 L 1.453125 -1.21875 C 1.441406 -1.375 1.40625 -1.488281 1.34375 -1.5625 C 1.28125 -1.644531 1.191406 -1.6875 1.078125 -1.6875 Z M 1.078125 -1.6875 "/></g></g><g transform="translate(14.907794, 520.191763)"><g/></g><g transform="translate(15.949047, 520.191763)"><g><path d="M 1.828125 0 L 0.703125 -1.984375 C 0.722656 -1.796875 0.734375 -1.640625 0.734375 -1.515625 L 0.734375 0 L 0.25 0 L 0.25 -2.578125 L 0.875 -2.578125 L 2.015625 -0.578125 C 1.984375 -0.765625 1.96875 -0.929688 1.96875 -1.078125 L 1.96875 -2.578125 L 2.453125 -2.578125 L 2.453125 0 Z M 1.828125 0 "/></g></g><g transform="translate(18.655573, 520.191763)"><g><path d="M 2.140625 -1 C 2.140625 -0.675781 2.050781 -0.421875 1.875 -0.234375 C 1.695312 -0.0546875 1.453125 0.03125 1.140625 0.03125 C 0.828125 0.03125 0.582031 -0.0546875 0.40625 -0.234375 C 0.226562 -0.421875 0.140625 -0.675781 0.140625 -1 C 0.140625 -1.3125 0.226562 -1.554688 0.40625 -1.734375 C 0.582031 -1.921875 0.828125 -2.015625 1.140625 -2.015625 C 1.472656 -2.015625 1.722656 -1.925781 1.890625 -1.75 C 2.054688 -1.570312 2.140625 -1.320312 2.140625 -1 Z M 1.609375 -1 C 1.609375 -1.226562 1.566406 -1.394531 1.484375 -1.5 C 1.410156 -1.613281 1.300781 -1.671875 1.15625 -1.671875 C 0.84375 -1.671875 0.6875 -1.445312 0.6875 -1 C 0.6875 -0.769531 0.722656 -0.597656 0.796875 -0.484375 C 0.878906 -0.367188 0.988281 -0.3125 1.125 -0.3125 C 1.445312 -0.3125 1.609375 -0.539062 1.609375 -1 Z M 1.609375 -1 "/></g></g><g transform="translate(20.944866, 520.191763)"><g><path d="M 0.75 -1.984375 L 0.75 -0.875 C 0.75 -0.519531 0.863281 -0.34375 1.09375 -0.34375 C 1.21875 -0.34375 1.316406 -0.394531 1.390625 -0.5 C 1.472656 -0.613281 1.515625 -0.753906 1.515625 -0.921875 L 1.515625 -1.984375 L 2.03125 -1.984375 L 2.03125 -0.4375 C 2.03125 -0.269531 2.035156 -0.125 2.046875 0 L 1.546875 0 C 1.535156 -0.175781 1.53125 -0.304688 1.53125 -0.390625 L 1.515625 -0.390625 C 1.453125 -0.242188 1.367188 -0.132812 1.265625 -0.0625 C 1.160156 0 1.035156 0.03125 0.890625 0.03125 C 0.671875 0.03125 0.503906 -0.03125 0.390625 -0.15625 C 0.285156 -0.28125 0.234375 -0.46875 0.234375 -0.71875 L 0.234375 -1.984375 Z M 0.75 -1.984375 "/></g></g><g transform="translate(23.234159, 520.191763)"><g><path d="M 1.546875 0 L 1.546875 -1.109375 C 1.546875 -1.460938 1.425781 -1.640625 1.1875 -1.640625 C 1.0625 -1.640625 0.960938 -1.582031 0.890625 -1.46875 C 0.816406 -1.363281 0.78125 -1.226562 0.78125 -1.0625 L 0.78125 0 L 0.265625 0 L 0.265625 -1.53125 C 0.265625 -1.644531 0.257812 -1.734375 0.25 -1.796875 C 0.25 -1.867188 0.25 -1.929688 0.25 -1.984375 L 0.734375 -1.984375 C 0.742188 -1.960938 0.75 -1.898438 0.75 -1.796875 C 0.757812 -1.691406 0.765625 -1.625 0.765625 -1.59375 C 0.835938 -1.738281 0.925781 -1.84375 1.03125 -1.90625 C 1.132812 -1.976562 1.257812 -2.015625 1.40625 -2.015625 C 1.613281 -2.015625 1.773438 -1.945312 1.890625 -1.8125 C 2.003906 -1.6875 2.0625 -1.503906 2.0625 -1.265625 L 2.0625 0 Z M 1.546875 0 "/></g></g><g transform="translate(25.523452, 520.191763)"><g/></g><g transform="translate(26.564705, 520.191763)"><g><path d="M 2.375 -1.765625 C 2.375 -1.597656 2.332031 -1.445312 2.25 -1.3125 C 2.175781 -1.1875 2.066406 -1.085938 1.921875 -1.015625 C 1.785156 -0.941406 1.625 -0.90625 1.4375 -0.90625 L 0.796875 -0.90625 L 0.796875 0 L 0.25 0 L 0.25 -2.578125 L 1.40625 -2.578125 C 1.71875 -2.578125 1.957031 -2.503906 2.125 -2.359375 C 2.289062 -2.222656 2.375 -2.023438 2.375 -1.765625 Z M 1.828125 -1.75 C 1.828125 -2.019531 1.664062 -2.15625 1.34375 -2.15625 L 0.796875 -2.15625 L 0.796875 -1.328125 L 1.359375 -1.328125 C 1.515625 -1.328125 1.628906 -1.363281 1.703125 -1.4375 C 1.785156 -1.507812 1.828125 -1.613281 1.828125 -1.75 Z M 1.828125 -1.75 "/></g></g><g transform="translate(29.064444, 520.191763)"><g><path d="M 0.265625 0 L 0.265625 -1.515625 C 0.265625 -1.617188 0.257812 -1.707031 0.25 -1.78125 C 0.25 -1.851562 0.25 -1.921875 0.25 -1.984375 L 0.734375 -1.984375 C 0.742188 -1.960938 0.75 -1.894531 0.75 -1.78125 C 0.757812 -1.664062 0.765625 -1.59375 0.765625 -1.5625 C 0.816406 -1.695312 0.863281 -1.789062 0.90625 -1.84375 C 0.945312 -1.90625 0.992188 -1.945312 1.046875 -1.96875 C 1.097656 -2 1.164062 -2.015625 1.25 -2.015625 C 1.3125 -2.015625 1.363281 -2.007812 1.40625 -2 L 1.40625 -1.5625 C 1.320312 -1.582031 1.25 -1.59375 1.1875 -1.59375 C 1.050781 -1.59375 0.945312 -1.539062 0.875 -1.4375 C 0.8125 -1.332031 0.78125 -1.175781 0.78125 -0.96875 L 0.78125 0 Z M 0.265625 0 "/></g></g><g transform="translate(30.522931, 520.191763)"><g><path d="M 2.140625 -1 C 2.140625 -0.675781 2.050781 -0.421875 1.875 -0.234375 C 1.695312 -0.0546875 1.453125 0.03125 1.140625 0.03125 C 0.828125 0.03125 0.582031 -0.0546875 0.40625 -0.234375 C 0.226562 -0.421875 0.140625 -0.675781 0.140625 -1 C 0.140625 -1.3125 0.226562 -1.554688 0.40625 -1.734375 C 0.582031 -1.921875 0.828125 -2.015625 1.140625 -2.015625 C 1.472656 -2.015625 1.722656 -1.925781 1.890625 -1.75 C 2.054688 -1.570312 2.140625 -1.320312 2.140625 -1 Z M 1.609375 -1 C 1.609375 -1.226562 1.566406 -1.394531 1.484375 -1.5 C 1.410156 -1.613281 1.300781 -1.671875 1.15625 -1.671875 C 0.84375 -1.671875 0.6875 -1.445312 0.6875 -1 C 0.6875 -0.769531 0.722656 -0.597656 0.796875 -0.484375 C 0.878906 -0.367188 0.988281 -0.3125 1.125 -0.3125 C 1.445312 -0.3125 1.609375 -0.539062 1.609375 -1 Z M 1.609375 -1 "/></g></g><g transform="translate(32.812223, 520.191763)"><g><path d="M 0.265625 -2.34375 L 0.265625 -2.71875 L 0.78125 -2.71875 L 0.78125 -2.34375 Z M 0.25 0.78125 C 0.125 0.78125 0.0195312 0.773438 -0.0625 0.765625 L -0.0625 0.40625 L 0.03125 0.40625 C 0.125 0.40625 0.1875 0.382812 0.21875 0.34375 C 0.25 0.3125 0.265625 0.234375 0.265625 0.109375 L 0.265625 -1.984375 L 0.78125 -1.984375 L 0.78125 0.234375 C 0.78125 0.410156 0.734375 0.546875 0.640625 0.640625 C 0.554688 0.734375 0.425781 0.78125 0.25 0.78125 Z M 0.25 0.78125 "/></g></g><g transform="translate(33.853477, 520.191763)"><g><path d="M 1.078125 0.03125 C 0.773438 0.03125 0.539062 -0.0546875 0.375 -0.234375 C 0.21875 -0.410156 0.140625 -0.664062 0.140625 -1 C 0.140625 -1.320312 0.222656 -1.570312 0.390625 -1.75 C 0.554688 -1.925781 0.785156 -2.015625 1.078125 -2.015625 C 1.359375 -2.015625 1.570312 -1.921875 1.71875 -1.734375 C 1.875 -1.546875 1.953125 -1.269531 1.953125 -0.90625 L 1.953125 -0.890625 L 0.6875 -0.890625 C 0.6875 -0.703125 0.722656 -0.554688 0.796875 -0.453125 C 0.867188 -0.359375 0.96875 -0.3125 1.09375 -0.3125 C 1.28125 -0.3125 1.394531 -0.390625 1.4375 -0.546875 L 1.921875 -0.5 C 1.785156 -0.144531 1.503906 0.03125 1.078125 0.03125 Z M 1.078125 -1.6875 C 0.953125 -1.6875 0.859375 -1.644531 0.796875 -1.5625 C 0.734375 -1.476562 0.695312 -1.363281 0.6875 -1.21875 L 1.453125 -1.21875 C 1.441406 -1.375 1.40625 -1.488281 1.34375 -1.5625 C 1.28125 -1.644531 1.191406 -1.6875 1.078125 -1.6875 Z M 1.078125 -1.6875 "/></g></g><g transform="translate(35.937813, 520.191763)"><g><path d="M 1.09375 0.03125 C 0.789062 0.03125 0.554688 -0.0546875 0.390625 -0.234375 C 0.222656 -0.410156 0.140625 -0.660156 0.140625 -0.984375 C 0.140625 -1.304688 0.222656 -1.554688 0.390625 -1.734375 C 0.554688 -1.921875 0.789062 -2.015625 1.09375 -2.015625 C 1.320312 -2.015625 1.515625 -1.957031 1.671875 -1.84375 C 1.828125 -1.726562 1.925781 -1.566406 1.96875 -1.359375 L 1.4375 -1.328125 C 1.425781 -1.429688 1.390625 -1.515625 1.328125 -1.578125 C 1.273438 -1.640625 1.191406 -1.671875 1.078125 -1.671875 C 0.816406 -1.671875 0.6875 -1.445312 0.6875 -1 C 0.6875 -0.539062 0.820312 -0.3125 1.09375 -0.3125 C 1.1875 -0.3125 1.265625 -0.34375 1.328125 -0.40625 C 1.398438 -0.46875 1.441406 -0.5625 1.453125 -0.6875 L 1.96875 -0.65625 C 1.957031 -0.519531 1.910156 -0.398438 1.828125 -0.296875 C 1.753906 -0.191406 1.648438 -0.109375 1.515625 -0.046875 C 1.390625 0.00390625 1.25 0.03125 1.09375 0.03125 Z M 1.09375 0.03125 "/></g></g><g transform="translate(38.022149, 520.191763)"><g><path d="M 0.765625 0.03125 C 0.617188 0.03125 0.503906 -0.0078125 0.421875 -0.09375 C 0.335938 -0.175781 0.296875 -0.300781 0.296875 -0.46875 L 0.296875 -1.640625 L 0.046875 -1.640625 L 0.046875 -1.984375 L 0.328125 -1.984375 L 0.484375 -2.453125 L 0.8125 -2.453125 L 0.8125 -1.984375 L 1.1875 -1.984375 L 1.1875 -1.640625 L 0.8125 -1.640625 L 0.8125 -0.609375 C 0.8125 -0.503906 0.828125 -0.429688 0.859375 -0.390625 C 0.898438 -0.347656 0.957031 -0.328125 1.03125 -0.328125 C 1.070312 -0.328125 1.128906 -0.332031 1.203125 -0.34375 L 1.203125 -0.03125 C 1.078125 0.0078125 0.929688 0.03125 0.765625 0.03125 Z M 0.765625 0.03125 "/></g></g></g></g></svg>